<svg xmlns="http://www.w3.org/2000/svg" width="1137" height="356" viewBox="0 0 1137 356">
  <g id="Grupo_54421" data-name="Grupo 54421" transform="translate(-219 -7956)">
    <g id="Rectángulo_5389" data-name="Rectángulo 5389" transform="translate(757 7956)" fill="#fff" stroke="#707070" stroke-width="1" stroke-dasharray="3">
      <rect width="335" height="264" rx="20" stroke="none"/>
      <rect x="0.5" y="0.5" width="334" height="263" rx="19.5" fill="none"/>
    </g>
    <rect id="Rectángulo_5377" data-name="Rectángulo 5377" width="509" height="63" transform="translate(219 7973)" fill="#0077ec"/>
    <rect id="Rectángulo_5383" data-name="Rectángulo 5383" width="244" height="63" transform="translate(1112 7973)" fill="#0077ec"/>
    <rect id="Rectángulo_5388" data-name="Rectángulo 5388" width="149" height="109" transform="translate(1207 8065)" fill="#03e6b0"/>
    <rect id="Rectángulo_5382" data-name="Rectángulo 5382" width="1137" height="63" transform="translate(219 8249)" fill="#03e6b0"/>
    <rect id="Rectángulo_5378" data-name="Rectángulo 5378" width="247" height="63" transform="translate(219 8065)" fill="#0077ec"/>
    <rect id="Rectángulo_5381" data-name="Rectángulo 5381" width="247" height="63" transform="translate(219 8157)" fill="#0077ec"/>
    <rect id="Rectángulo_5379" data-name="Rectángulo 5379" width="247" height="63" transform="translate(481 8065)" fill="#03e6b0"/>
    <rect id="Rectángulo_5380" data-name="Rectángulo 5380" width="247" height="63" transform="translate(481 8157)" fill="#03e6b0"/>
    <text id="NIST_Cyber_Framework_Core_Functions" data-name="NIST Cyber Framework Core Functions" transform="translate(309 7993)" fill="#fff" font-size="18" font-family="Roboto-Black, Roboto" font-weight="800"><tspan x="-155.544" y="17">NIST Cyber Framework Core Functions</tspan></text>
    <text id="HITRUST_CSF_Controls" data-name="HITRUST CSF Controls" transform="translate(504 8270)" fill="#004080" font-size="18" font-family="Roboto-Black, Roboto" font-weight="800"><tspan x="-91.674" y="17">HITRUST CSF Controls</tspan></text>
    <text id="NIST_Cyber_Framework_Core_Categories" data-name="NIST Cyber Framework
Core Categories" transform="translate(226 8076)" fill="#fff" font-size="18" font-family="Roboto-Black, Roboto" font-weight="800"><tspan x="-92.457" y="17">NIST Cyber Framework</tspan><tspan x="-64.292" y="38">Core Categories</tspan></text>
    <text id="HITRUST_CSF_Assessment" data-name="HITRUST CSF Assessment" transform="translate(1222 8098)" fill="#004080" font-size="18" font-family="Roboto-Black, Roboto" font-weight="800"><tspan x="-55.182" y="17">HITRUST CSF </tspan><tspan x="-49.557" y="38">Assessment</tspan></text>
    <g id="Grupo_54420" data-name="Grupo 54420" transform="translate(5 1)">
      <rect id="Rectángulo_5384" data-name="Rectángulo 5384" width="149" height="101" transform="translate(766 7973)" fill="#0077ec"/>
      <rect id="Rectángulo_5385" data-name="Rectángulo 5385" width="149" height="101" transform="translate(925 7973)" fill="#0077ec"/>
      <rect id="Rectángulo_5386" data-name="Rectángulo 5386" width="149" height="101" transform="translate(925 8100)" fill="#03e6b0"/>
      <rect id="Rectángulo_5457" data-name="Rectángulo 5457" width="149" height="101" transform="translate(766 8100)" fill="#03e6b0"/>
      <text id="NIST_Cyber_Framework_Target_Profile" data-name="NIST Cyber Framework Target Profile" transform="translate(781 7989)" fill="#fff" font-size="18" font-family="Roboto-Black, Roboto" font-weight="800"><tspan x="-45.233" y="17">NIST Cyber </tspan><tspan x="-44.982" y="38">Framework </tspan><tspan x="-54.501" y="59">Target Profile</tspan></text>
      <text id="HITRUST_CSF_Assessment-2" data-name="HITRUST CSF Assessment" transform="translate(940 8129)" fill="#004080" font-size="18" font-family="Roboto-Black, Roboto" font-weight="800"><tspan x="-55.182" y="17">HITRUST CSF </tspan><tspan x="-49.557" y="38">Assessment</tspan></text>
      <text id="Tailored_HITRUST_CSF_Baseline" data-name="Tailored
HITRUST CSF
Baseline" transform="translate(781 8118)" fill="#004080" font-size="18" font-family="Roboto-Black, Roboto" font-weight="800"><tspan x="-32.3" y="17">Tailored</tspan><tspan x="-55.182" y="38">HITRUST CSF</tspan><tspan x="-34.51" y="59">Baseline</tspan></text>
      <text id="NIST_Cyber_Framework_Current_Profile" data-name="NIST Cyber Framework Current Profile" transform="translate(940 7989)" fill="#fff" font-size="18" font-family="Roboto-Black, Roboto" font-weight="800"><tspan x="-45.233" y="17">NIST Cyber </tspan><tspan x="-44.982" y="38">Framework </tspan><tspan x="-59.014" y="59">Current Profile</tspan></text>
    </g>
    <text id="NIST_Cyber_Framework_Implementation_Tiers" data-name="NIST Cyber Framework Implementation Tiers" transform="translate(1136 7983)" fill="#fff" font-size="18" font-family="Roboto-Black, Roboto" font-weight="800"><tspan x="-92.457" y="17">NIST Cyber Framework </tspan><tspan x="-86.124" y="38">Implementation Tiers</tspan></text>
    <text id="NIST_Cyber_Framework_Core_Subcategories" data-name="NIST Cyber Framework Core Subcategories" transform="translate(226 8169)" fill="#fff" font-size="18" font-family="Roboto-Black, Roboto" font-weight="800"><tspan x="-92.457" y="17">NIST Cyber Framework </tspan><tspan x="-78.864" y="38">Core Subcategories</tspan></text>
    <text id="HITRUST_CSF_Control_Categories" data-name="HITRUST CSF Control Categories" transform="translate(492 8076)" fill="#004080" font-size="18" font-family="Roboto-Black, Roboto" font-weight="800"><tspan x="-87.069" y="17">HITRUST CSF Control </tspan><tspan x="-43.458" y="38">Categories</tspan></text>
    <text id="HITRUST_CSF_Control_Objectives" data-name="HITRUST CSF Control Objectives" transform="translate(492 8169)" fill="#004080" font-size="18" font-family="Roboto-Black, Roboto" font-weight="800"><tspan x="-87.069" y="17">HITRUST CSF Control </tspan><tspan x="-42.517" y="38">Objectives</tspan></text>
    <path id="Icon_awesome-arrows-alt-v" data-name="Icon awesome-arrows-alt-v" d="M21.373,38.754H16.65V13.746h4.723a2.461,2.461,0,0,0,1.74-4.2L14.289.721a2.461,2.461,0,0,0-3.48,0L1.984,9.545a2.461,2.461,0,0,0,1.74,4.2H8.447V38.754H3.724a2.461,2.461,0,0,0-1.74,4.2l8.824,8.824a2.461,2.461,0,0,0,3.48,0l8.824-8.824A2.461,2.461,0,0,0,21.373,38.754Z" transform="translate(325.951 8023.5)" fill="#ffd947"/>
    <path id="Icon_awesome-arrows-alt-v-2" data-name="Icon awesome-arrows-alt-v" d="M21.373,38.754H16.65V13.746h4.723a2.461,2.461,0,0,0,1.74-4.2L14.289.721a2.461,2.461,0,0,0-3.48,0L1.984,9.545a2.461,2.461,0,0,0,1.74,4.2H8.447V38.754H3.724a2.461,2.461,0,0,0-1.74,4.2l8.824,8.824a2.461,2.461,0,0,0,3.48,0l8.824-8.824A2.461,2.461,0,0,0,21.373,38.754Z" transform="translate(499.75 8083.952) rotate(90)" fill="#ffd947"/>
    <path id="Icon_awesome-arrows-alt-v-3" data-name="Icon awesome-arrows-alt-v" d="M21.373,38.754H16.65V13.746h4.723a2.461,2.461,0,0,0,1.74-4.2L14.289.721a2.461,2.461,0,0,0-3.48,0L1.984,9.545a2.461,2.461,0,0,0,1.74,4.2H8.447V38.754H3.724a2.461,2.461,0,0,0-1.74,4.2l8.824,8.824a2.461,2.461,0,0,0,3.48,0l8.824-8.824A2.461,2.461,0,0,0,21.373,38.754Z" transform="translate(499.75 8175.952) rotate(90)" fill="#ffd947"/>
    <path id="Icon_awesome-arrows-alt-v-4" data-name="Icon awesome-arrows-alt-v" d="M21.373,38.754H16.65V13.746h4.723a2.461,2.461,0,0,0,1.74-4.2L14.289.721a2.461,2.461,0,0,0-3.48,0L1.984,9.545a2.461,2.461,0,0,0,1.74,4.2H8.447V38.754H3.724a2.461,2.461,0,0,0-1.74,4.2l8.824,8.824a2.461,2.461,0,0,0,3.48,0l8.824-8.824A2.461,2.461,0,0,0,21.373,38.754Z" transform="translate(325.951 8116.5)" fill="#ffd947"/>
    <path id="Icon_awesome-arrows-alt-v-5" data-name="Icon awesome-arrows-alt-v" d="M21.373,38.754H16.65V13.746h4.723a2.461,2.461,0,0,0,1.74-4.2L14.289.721a2.461,2.461,0,0,0-3.48,0L1.984,9.545a2.461,2.461,0,0,0,1.74,4.2H8.447V38.754H3.724a2.461,2.461,0,0,0-1.74,4.2l8.824,8.824a2.461,2.461,0,0,0,3.48,0l8.824-8.824A2.461,2.461,0,0,0,21.373,38.754Z" transform="translate(325.951 8206.5)" fill="#ffd947"/>
    <path id="Icon_awesome-arrows-alt-v-6" data-name="Icon awesome-arrows-alt-v" d="M21.373,38.754H16.65V13.746h4.723a2.461,2.461,0,0,0,1.74-4.2L14.289.721a2.461,2.461,0,0,0-3.48,0L1.984,9.545a2.461,2.461,0,0,0,1.74,4.2H8.447V38.754H3.724a2.461,2.461,0,0,0-1.74,4.2l8.824,8.824a2.461,2.461,0,0,0,3.48,0l8.824-8.824A2.461,2.461,0,0,0,21.373,38.754Z" transform="translate(591.952 8023.5)" fill="#ffd947"/>
    <path id="Icon_awesome-arrows-alt-v-7" data-name="Icon awesome-arrows-alt-v" d="M21.373,38.754H16.65V13.746h4.723a2.461,2.461,0,0,0,1.74-4.2L14.289.721a2.461,2.461,0,0,0-3.48,0L1.984,9.545a2.461,2.461,0,0,0,1.74,4.2H8.447V38.754H3.724a2.461,2.461,0,0,0-1.74,4.2l8.824,8.824a2.461,2.461,0,0,0,3.48,0l8.824-8.824A2.461,2.461,0,0,0,21.373,38.754Z" transform="translate(833.742 8061.75)" fill="#ffd947"/>
    <path id="Icon_awesome-arrows-alt-v-8" data-name="Icon awesome-arrows-alt-v" d="M21.373,60.754H16.65V13.746h4.723a2.461,2.461,0,0,0,1.74-4.2L14.289.721a2.461,2.461,0,0,0-3.48,0L1.984,9.545a2.461,2.461,0,0,0,1.74,4.2H8.447V60.754H3.724a2.461,2.461,0,0,0-1.74,4.2l8.824,8.824a2.461,2.461,0,0,0,3.48,0l8.824-8.824A2.461,2.461,0,0,0,21.373,60.754Z" transform="translate(990.742 8188.5)" fill="#ffd947"/>
    <path id="Icon_awesome-arrows-alt-v-9" data-name="Icon awesome-arrows-alt-v" d="M21.373,60.754H16.65V13.746h4.723a2.461,2.461,0,0,0,1.74-4.2L14.289.721a2.461,2.461,0,0,0-3.48,0L1.984,9.545a2.461,2.461,0,0,0,1.74,4.2H8.447V60.754H3.724a2.461,2.461,0,0,0-1.74,4.2l8.824,8.824a2.461,2.461,0,0,0,3.48,0l8.824-8.824A2.461,2.461,0,0,0,21.373,60.754Z" transform="translate(833.742 8188.5)" fill="#ffd947"/>
    <path id="Icon_awesome-arrows-alt-v-10" data-name="Icon awesome-arrows-alt-v" d="M21.373,88.754H16.65V13.746h4.723a2.461,2.461,0,0,0,1.74-4.2L14.289.721a2.461,2.461,0,0,0-3.48,0L1.984,9.545a2.461,2.461,0,0,0,1.74,4.2H8.447V88.754H3.724a2.461,2.461,0,0,0-1.74,4.2l8.824,8.824a2.461,2.461,0,0,0,3.48,0l8.824-8.824A2.461,2.461,0,0,0,21.373,88.754Z" transform="translate(1268.742 8161.5)" fill="#ffd947"/>
    <path id="Icon_awesome-arrows-alt-v-11" data-name="Icon awesome-arrows-alt-v" d="M21.373,227.754H16.65V13.746h4.723a2.461,2.461,0,0,0,1.74-4.2L14.289.721a2.461,2.461,0,0,0-3.48,0L1.984,9.545a2.461,2.461,0,0,0,1.74,4.2H8.447V227.754H3.724a2.461,2.461,0,0,0-1.74,4.2l8.824,8.824a2.461,2.461,0,0,0,3.48,0l8.824-8.824A2.461,2.461,0,0,0,21.373,227.754Z" transform="translate(1142.129 8030)" fill="#ffd947"/>
    <path id="Icon_awesome-arrows-alt-v-12" data-name="Icon awesome-arrows-alt-v" d="M21.373,38.754H16.65V13.746h4.723a2.461,2.461,0,0,0,1.74-4.2L14.289.721a2.461,2.461,0,0,0-3.48,0L1.984,9.545a2.461,2.461,0,0,0,1.74,4.2H8.447V38.754H3.724a2.461,2.461,0,0,0-1.74,4.2l8.824,8.824a2.461,2.461,0,0,0,3.48,0l8.824-8.824A2.461,2.461,0,0,0,21.373,38.754Z" transform="translate(990.742 8061.75)" fill="#ffd947"/>
    <path id="Icon_awesome-arrows-alt-v-13" data-name="Icon awesome-arrows-alt-v" d="M21.373,38.754H16.65V13.746h4.723a2.461,2.461,0,0,0,1.74-4.2L14.289.721a2.461,2.461,0,0,0-3.48,0L1.984,9.545a2.461,2.461,0,0,0,1.74,4.2H8.447V38.754H3.724a2.461,2.461,0,0,0-1.74,4.2l8.824,8.824a2.461,2.461,0,0,0,3.48,0l8.824-8.824A2.461,2.461,0,0,0,21.373,38.754Z" transform="translate(1268.742 8030)" fill="#ffd947"/>
    <path id="Icon_awesome-arrows-alt-v-14" data-name="Icon awesome-arrows-alt-v" d="M21.373,38.754H16.65V13.746h4.723a2.461,2.461,0,0,0,1.74-4.2L14.289.721a2.461,2.461,0,0,0-3.48,0L1.984,9.545a2.461,2.461,0,0,0,1.74,4.2H8.447V38.754H3.724a2.461,2.461,0,0,0-1.74,4.2l8.824,8.824a2.461,2.461,0,0,0,3.48,0l8.824-8.824A2.461,2.461,0,0,0,21.373,38.754Z" transform="translate(591.952 8116.5)" fill="#ffd947"/>
    <path id="Icon_awesome-arrows-alt-v-15" data-name="Icon awesome-arrows-alt-v" d="M21.373,38.754H16.65V13.746h4.723a2.461,2.461,0,0,0,1.74-4.2L14.289.721a2.461,2.461,0,0,0-3.48,0L1.984,9.545a2.461,2.461,0,0,0,1.74,4.2H8.447V38.754H3.724a2.461,2.461,0,0,0-1.74,4.2l8.824,8.824a2.461,2.461,0,0,0,3.48,0l8.824-8.824A2.461,2.461,0,0,0,21.373,38.754Z" transform="translate(591.952 8206.5)" fill="#ffd947"/>
  </g>
</svg>
