<svg xmlns="http://www.w3.org/2000/svg" width="400" height="393.73" viewBox="0 0 400 393.73">
  <g id="Grupo_53988" data-name="Grupo 53988" transform="translate(-418.637 -368.451)">
    <g id="shadow" transform="translate(433.092 757.12)">
      <path id="Trazado_100883" data-name="Trazado 100883" d="M848.552,2054.183H483.671a2.53,2.53,0,0,1-2.53-2.53h0a2.531,2.531,0,0,1,2.53-2.53h364.88a2.53,2.53,0,0,1,2.53,2.53h0A2.53,2.53,0,0,1,848.552,2054.183Z" transform="translate(-481.141 -2049.122)" fill="#003c99"/>
    </g>
    <g id="elements" transform="translate(418.637 368.451)">
      <g id="cloud" transform="translate(0)">
        <g id="Grupo_53962" data-name="Grupo 53962" transform="translate(0 105.01)">
          <path id="Trazado_100884" data-name="Trazado 100884" d="M436.988,855.215c.018-.238.031-.477.031-.72a9.191,9.191,0,0,0-18.381,0c0,.243.012.482.031.72Z" transform="translate(-418.637 -840.038)" fill="#80b2ff"/>
          <path id="Trazado_100885" data-name="Trazado 100885" d="M567.548,855.215c.018-.238.031-.477.031-.72a9.191,9.191,0,0,0-18.381,0c0,.243.012.482.031.72Z" transform="translate(-519.004 -840.038)" fill="#80b2ff"/>
          <path id="Trazado_100886" data-name="Trazado 100886" d="M619.289,864.163a6.5,6.5,0,1,0-12.957-.72,6.624,6.624,0,0,0,.04.72Z" transform="translate(-562.926 -848.986)" fill="#80b2ff"/>
          <path id="Trazado_100887" data-name="Trazado 100887" d="M493.683,837.709A13.6,13.6,0,0,0,493.79,836a13.464,13.464,0,0,0-26.927,0,13.6,13.6,0,0,0,.108,1.713Z" transform="translate(-455.71 -822.532)" fill="#80b2ff"/>
        </g>
        <g id="Grupo_53963" data-name="Grupo 53963" transform="translate(226.449)">
          <path id="Trazado_100888" data-name="Trazado 100888" d="M1416.191,401.134c.018-.238.031-.477.031-.72a9.19,9.19,0,1,0-18.381,0c0,.243.012.482.031.72Z" transform="translate(-1397.841 -385.957)" fill="#80b2ff"/>
          <path id="Trazado_100889" data-name="Trazado 100889" d="M1546.752,401.134c.018-.238.031-.477.031-.72a9.191,9.191,0,1,0-18.381,0c0,.243.012.482.031.72Z" transform="translate(-1498.208 -385.957)" fill="#80b2ff"/>
          <path id="Trazado_100890" data-name="Trazado 100890" d="M1472.886,383.628a13.464,13.464,0,1,0-26.711,0Z" transform="translate(-1434.914 -368.451)" fill="#80b2ff"/>
        </g>
      </g>
      <g id="card" transform="translate(72.524 34.197)">
        <path id="Trazado_100891" data-name="Trazado 100891" d="M856.238,653.378h-3.311a.443.443,0,0,1,0-.887h3.311a.443.443,0,1,1,0,.887Zm-6.622,0H846.3a.443.443,0,0,1,0-.887h3.311a.443.443,0,1,1,0,.887Zm-6.622,0h-3.311a.443.443,0,0,1,0-.887h3.311a.443.443,0,0,1,0,.887Zm-6.622,0H833.06a.443.443,0,1,1,0-.887h3.311a.443.443,0,0,1,0,.887Zm-6.622,0h-3.311a.443.443,0,1,1,0-.887h3.311a.443.443,0,1,1,0,.887Zm-6.622,0h-3.311a.443.443,0,0,1,0-.887h3.311a.443.443,0,1,1,0,.887Zm-6.622,0h-3.311a.443.443,0,1,1,0-.887H816.5a.443.443,0,1,1,0,.887Zm-6.622,0h-3.311a.443.443,0,1,1,0-.887h3.311a.443.443,0,0,1,0,.887Zm-6.622,0H799.95a.443.443,0,1,1,0-.887h3.311a.443.443,0,1,1,0,.887Zm-6.622,0h-3.311a.443.443,0,1,1,0-.887h3.311a.443.443,0,1,1,0,.887Zm-6.622,0h-3.311a.443.443,0,0,1,0-.887h3.311a.443.443,0,1,1,0,.887Zm-6.622,0h-3.311a.443.443,0,1,1,0-.887h3.311a.443.443,0,1,1,0,.887Zm-6.622,0h-3.311a.443.443,0,1,1,0-.887h3.311a.443.443,0,0,1,0,.887Zm-6.622,0h-3.311a.443.443,0,0,1,0-.887h3.311a.443.443,0,1,1,0,.887Zm-6.622,0h-3.311a.443.443,0,1,1,0-.887h3.311a.443.443,0,1,1,0,.887Zm-6.622,0h-3.311a.443.443,0,0,1,0-.887h3.311a.443.443,0,1,1,0,.887Zm-6.622,0h-3.311a.443.443,0,1,1,0-.887h3.311a.443.443,0,1,1,0,.887Zm-6.622,0H740.35a.443.443,0,1,1,0-.887h3.311a.443.443,0,0,1,0,.887Zm-6.622,0h-.54a4.352,4.352,0,0,1-2.836-1.039.443.443,0,0,1,.578-.673,3.465,3.465,0,0,0,2.259.825h.54a.443.443,0,1,1,0,.887Zm122.339-.784a.443.443,0,0,1-.268-.8,3.125,3.125,0,0,0,1.271-2.494.443.443,0,0,1,.443-.443h0a.444.444,0,0,1,.442.445,4,4,0,0,1-1.623,3.2A.441.441,0,0,1,859.378,652.594Zm-126.69-3.082a.443.443,0,0,1-.444-.443v-3.311a.443.443,0,0,1,.887,0v3.311A.443.443,0,0,1,732.688,649.512Zm128.137-3.076a.444.444,0,0,1-.443-.443v-3.311a.443.443,0,1,1,.887,0v3.311A.443.443,0,0,1,860.825,646.436ZM732.688,642.89a.443.443,0,0,1-.444-.443v-3.311a.443.443,0,0,1,.887,0v3.311A.443.443,0,0,1,732.688,642.89Zm128.137-3.076a.444.444,0,0,1-.443-.444v-3.311a.443.443,0,1,1,.887,0v3.311A.443.443,0,0,1,860.825,639.814Zm-128.137-3.546a.444.444,0,0,1-.444-.444v-3.311a.443.443,0,1,1,.887,0v3.311A.443.443,0,0,1,732.688,636.268Zm128.137-3.076a.443.443,0,0,1-.443-.443v-3.311a.443.443,0,1,1,.887,0v3.311A.443.443,0,0,1,860.825,633.192Zm-128.137-3.546a.443.443,0,0,1-.444-.443v-3.311a.443.443,0,1,1,.887,0V629.2A.443.443,0,0,1,732.688,629.646Zm128.137-3.076a.443.443,0,0,1-.443-.443v-3.311a.443.443,0,1,1,.887,0v3.311A.443.443,0,0,1,860.825,626.57Zm-128.137-3.546a.443.443,0,0,1-.444-.443v-3.311a.443.443,0,1,1,.887,0v3.311A.443.443,0,0,1,732.688,623.024Zm128.137-3.076a.443.443,0,0,1-.443-.443v-3.311a.443.443,0,1,1,.887,0V619.5A.443.443,0,0,1,860.825,619.947ZM732.688,616.4a.444.444,0,0,1-.444-.444v-3.311a.443.443,0,1,1,.887,0v3.311A.443.443,0,0,1,732.688,616.4Zm128.137-3.076a.443.443,0,0,1-.443-.443v-3.311a.443.443,0,1,1,.887,0v3.311A.443.443,0,0,1,860.825,613.325Zm-128.137-3.546a.444.444,0,0,1-.444-.444v-3.311a.443.443,0,0,1,.887,0v3.311A.443.443,0,0,1,732.688,609.779ZM860.825,606.7a.444.444,0,0,1-.443-.443v-3.311a.443.443,0,1,1,.887,0v3.311A.443.443,0,0,1,860.825,606.7Zm-128.137-3.546a.443.443,0,0,1-.444-.443V599.4a.443.443,0,0,1,.887,0v3.311A.443.443,0,0,1,732.688,603.157Zm128.137-3.076a.444.444,0,0,1-.443-.444v-3.311a.443.443,0,1,1,.887,0v3.311A.443.443,0,0,1,860.825,600.081Zm-128.137-3.546a.443.443,0,0,1-.444-.443v-3.311a.443.443,0,1,1,.887,0v3.311A.443.443,0,0,1,732.688,596.535Zm128.137-3.076a.443.443,0,0,1-.443-.443V589.7a.443.443,0,1,1,.887,0v3.311A.443.443,0,0,1,860.825,593.459Zm-128.137-3.546a.444.444,0,0,1-.444-.444v-3.311a.45.45,0,0,1,.444-.451.437.437,0,0,1,.443.436v3.326A.444.444,0,0,1,732.688,589.913Zm128.137-3.076a.443.443,0,0,1-.443-.443v-.235a3.132,3.132,0,0,0-1.1-2.366.443.443,0,1,1,.579-.672,4.018,4.018,0,0,1,1.412,3.038v.235A.443.443,0,0,1,860.825,586.837Zm-126.684-3.094a.443.443,0,0,1-.267-.8,4.328,4.328,0,0,1,2.625-.869h.783a.443.443,0,0,1,0,.887H736.5a3.446,3.446,0,0,0-2.092.691A.442.442,0,0,1,734.141,583.743Zm122.34-.78H853.17a.443.443,0,0,1,0-.887h3.311a.443.443,0,0,1,0,.887Zm-6.622,0h-3.311a.443.443,0,1,1,0-.887h3.311a.443.443,0,0,1,0,.887Zm-6.622,0h-3.311a.443.443,0,0,1,0-.887h3.311a.443.443,0,1,1,0,.887Zm-6.622,0H833.3a.443.443,0,0,1,0-.887h3.311a.443.443,0,1,1,0,.887Zm-6.622,0h-3.311a.443.443,0,1,1,0-.887h3.311a.443.443,0,0,1,0,.887Zm-6.622,0h-3.311a.443.443,0,1,1,0-.887h3.311a.443.443,0,1,1,0,.887Zm-6.622,0h-3.311a.443.443,0,0,1,0-.887h3.311a.443.443,0,0,1,0,.887Zm-6.622,0h-3.311a.443.443,0,0,1,0-.887h3.311a.443.443,0,0,1,0,.887Zm-6.622,0h-3.311a.443.443,0,1,1,0-.887H803.5a.443.443,0,1,1,0,.887Zm-6.622,0h-3.311a.443.443,0,1,1,0-.887h3.311a.443.443,0,1,1,0,.887Zm-6.622,0h-3.311a.443.443,0,1,1,0-.887h3.311a.443.443,0,0,1,0,.887Zm-6.622,0h-3.311a.443.443,0,1,1,0-.887h3.311a.443.443,0,0,1,0,.887Zm-6.622,0H773.7a.443.443,0,0,1,0-.887h3.311a.443.443,0,1,1,0,.887Zm-6.622,0h-3.311a.443.443,0,0,1,0-.887h3.311a.443.443,0,0,1,0,.887Zm-6.622,0H760.46a.443.443,0,1,1,0-.887h3.311a.443.443,0,0,1,0,.887Zm-6.622,0h-3.311a.443.443,0,1,1,0-.887h3.311a.443.443,0,1,1,0,.887Zm-6.622,0h-3.311a.443.443,0,0,1,0-.887h3.311a.443.443,0,1,1,0,.887Zm-6.622,0h-3.311a.443.443,0,0,1,0-.887H743.9a.443.443,0,0,1,0,.887Z" transform="translate(-732.244 -566.87)" fill="#c0daff"/>
        <path id="Trazado_100892" data-name="Trazado 100892" d="M901.957,592.092H784.237a4.487,4.487,0,0,1-4.487-4.487V520.811a4.487,4.487,0,0,1,4.487-4.487h117.72a4.487,4.487,0,0,1,4.487,4.487v66.794A4.487,4.487,0,0,1,901.957,592.092Z" transform="translate(-768.764 -516.324)" fill="#66a2ff"/>
        <rect id="Rectángulo_5214" data-name="Rectángulo 5214" width="126.695" height="13.074" transform="translate(10.986 14.309)" fill="#0046b3"/>
        <path id="Trazado_100893" data-name="Trazado 100893" d="M836.187,781.1H817.559a2.144,2.144,0,0,0-2.144,2.144h0a2.144,2.144,0,0,0,2.144,2.144h18.628a2.144,2.144,0,0,0,2.144-2.144h0A2.144,2.144,0,0,0,836.187,781.1Z" transform="translate(-796.181 -719.867)" fill="#d1f5ff"/>
        <path id="Trazado_100894" data-name="Trazado 100894" d="M960.06,781.1H941.432a2.144,2.144,0,0,0-2.144,2.144h0a2.144,2.144,0,0,0,2.144,2.144H960.06a2.144,2.144,0,0,0,2.144-2.144h0A2.144,2.144,0,0,0,960.06,781.1Z" transform="translate(-891.407 -719.867)" fill="#d1f5ff"/>
        <path id="Trazado_100895" data-name="Trazado 100895" d="M1083.932,781.1H1065.3a2.144,2.144,0,0,0-2.144,2.144h0a2.144,2.144,0,0,0,2.144,2.144h18.628a2.144,2.144,0,0,0,2.144-2.144h0A2.144,2.144,0,0,0,1083.932,781.1Z" transform="translate(-986.633 -719.867)" fill="#d1f5ff"/>
        <path id="Trazado_100896" data-name="Trazado 100896" d="M1207.805,781.1h-18.628a2.144,2.144,0,0,0-2.144,2.144h0a2.144,2.144,0,0,0,2.144,2.144h18.628a2.144,2.144,0,0,0,2.144-2.144h0A2.144,2.144,0,0,0,1207.805,781.1Z" transform="translate(-1081.859 -719.867)" fill="#d1f5ff"/>
        <path id="Trazado_100897" data-name="Trazado 100897" d="M813.109,532.952h0a2.366,2.366,0,0,0-2.366,2.366v.831a2.366,2.366,0,0,0,2.366,2.366h0a2.367,2.367,0,0,0,2.366-2.366v-.831A2.366,2.366,0,0,0,813.109,532.952Z" transform="translate(-792.589 -529.107)" fill="#d1f5ff"/>
        <path id="Trazado_100898" data-name="Trazado 100898" d="M843.021,535.734h0a2.782,2.782,0,0,0,2.782,2.782h9.86a2.782,2.782,0,0,0,2.782-2.782h0a2.782,2.782,0,0,0-2.782-2.782H845.8A2.782,2.782,0,0,0,843.021,535.734Z" transform="translate(-817.403 -529.107)" fill="#d1f5ff"/>
        <rect id="Rectángulo_5215" data-name="Rectángulo 5215" width="20.126" height="18.371" rx="2" transform="translate(20.629 34.417)" fill="#03e6b0"/>
      </g>
      <g id="Gear" transform="translate(111.304 34.35)">
        <g id="Grupo_53964" data-name="Grupo 53964" transform="translate(140.696)">
          <path id="Trazado_100899" data-name="Trazado 100899" d="M1600.629,577.169a44.21,44.21,0,0,0,.882-17.438l1.794-.269,3.543-.53.045-.01a49.5,49.5,0,0,0-6.479-18.152l-4.667,2.78a44.223,44.223,0,0,0-11.719-12.94l3.24-4.378a49.286,49.286,0,0,0-17.419-8.27l-1.339,5.285a44.138,44.138,0,0,0-17.438-.882l-.809-5.382a49.812,49.812,0,0,0-18.152,6.478l2.78,4.667a44.225,44.225,0,0,0-12.94,11.719l-4.377-3.24a49.289,49.289,0,0,0-8.27,17.419l5.285,1.339a44.136,44.136,0,0,0-.883,17.437l-3.808.569-1.553.246-.02-.005a49.822,49.822,0,0,0,6.478,18.152l4.667-2.78a44.313,44.313,0,0,0,11.739,12.945l-3.24,4.377a49.19,49.19,0,0,0,17.4,8.265l1.339-5.285a44.241,44.241,0,0,0,17.458.888l.622,4.184.186,1.2a49.726,49.726,0,0,0,18.132-6.483l-2.78-4.667a44.694,44.694,0,0,0,12.965-11.734l4.377,3.24a49.551,49.551,0,0,0,8.245-17.4ZM1557.6,590.832a24.555,24.555,0,1,1,23.8-18.536A24.49,24.49,0,0,1,1557.6,590.832Zm-.044-48.192a23.632,23.632,0,0,0-5.75,46.542h0a23.627,23.627,0,0,0,11.607-45.806A23.83,23.83,0,0,0,1557.553,542.64Z" transform="translate(-1508.326 -516.984)" fill="none"/>
        </g>
        <g id="Grupo_53965" data-name="Grupo 53965" transform="translate(209.422 96.999)">
          <path id="Trazado_100900" data-name="Trazado 100900" d="M1849.851,947.93a23.277,23.277,0,0,0-7.028-5.926l.459-.838.907-1.654.01-.022a26.062,26.062,0,0,0-9.673-3.069l-.322,2.842a23.285,23.285,0,0,0-9.158.789l-.8-2.753a25.949,25.949,0,0,0-9.016,4.666l1.788,2.245a23.237,23.237,0,0,0-5.926,7.028l-2.514-1.376a26.225,26.225,0,0,0-3.068,9.672l2.842.322a23.286,23.286,0,0,0,.788,9.158l-2.752.8a25.947,25.947,0,0,0,4.666,9.017l2.245-1.789a23.235,23.235,0,0,0,7.028,5.926l-.975,1.778-.392.729-.009.007a26.236,26.236,0,0,0,9.672,3.069l.322-2.842a23.338,23.338,0,0,0,9.166-.8l.8,2.752a25.9,25.9,0,0,0,9.008-4.659l-1.788-2.245a23.286,23.286,0,0,0,5.935-7.034l1.952,1.072.561.3a26.18,26.18,0,0,0,3.06-9.666l-2.842-.322a23.529,23.529,0,0,0-.787-9.173l2.753-.8a26.092,26.092,0,0,0-4.667-9Zm-18.264,27.7a13.137,13.137,0,1,1,8.18-2.859h0A13.089,13.089,0,0,1,1831.587,975.634Zm-.037-25.363a12.222,12.222,0,1,0,7.641,21.78l.288.362-.288-.362a12.223,12.223,0,0,0-6.242-21.7A12.427,12.427,0,0,0,1831.55,950.271Z" transform="translate(-1805.508 -936.422)" fill="none"/>
        </g>
        <g id="Grupo_53966" data-name="Grupo 53966" transform="translate(0 226.062)">
          <path id="Trazado_100901" data-name="Trazado 100901" d="M951.1,1507.792a26.862,26.862,0,0,0-8.11-6.838l.529-.967,1.047-1.909.012-.025a30.074,30.074,0,0,0-11.162-3.541l-.371,3.279a26.874,26.874,0,0,0-10.568.91l-.926-3.176a29.946,29.946,0,0,0-10.4,5.384l2.064,2.591a26.818,26.818,0,0,0-6.839,8.11l-2.9-1.588a30.261,30.261,0,0,0-3.541,11.162l3.279.371a26.871,26.871,0,0,0,.91,10.568l-3.176.926a29.947,29.947,0,0,0,5.384,10.4l2.591-2.064a26.816,26.816,0,0,0,8.109,6.839l-1.125,2.051-.453.841-.01.008a30.269,30.269,0,0,0,11.162,3.541l.372-3.28a26.927,26.927,0,0,0,10.577-.918l.926,3.177a29.886,29.886,0,0,0,10.4-5.377l-2.064-2.591a26.874,26.874,0,0,0,6.848-8.117l2.253,1.238.648.35A30.21,30.21,0,0,0,960.093,1528l-3.279-.372a27.157,27.157,0,0,0-.908-10.585l3.177-.926a30.112,30.112,0,0,0-5.386-10.387ZM930.04,1539.7a15.315,15.315,0,0,1-1.727-.1,15.1,15.1,0,1,1,11.112-3.2h0A15,15,0,0,1,930.04,1539.7ZM930,1510.43a14.171,14.171,0,1,0,11.1,5.335A14.1,14.1,0,0,0,930,1510.43Z" transform="translate(-899.934 -1494.512)" fill="none"/>
        </g>
      </g>
    </g>
    <g id="phone" transform="translate(559.185 434.814)">
      <g id="phone-2" data-name="phone">
        <path id="Trazado_100902" data-name="Trazado 100902" d="M1233.131,672.217c-2.568-15.213-26-22.081-25.537-12.152l-107.4.629c-7.438.043-13.47,6.735-13.477,14.954L1086.5,958.1c-.007,8.514,6.13,15.476,13.711,15.541l109.634.941a8.775,8.775,0,0,0,3.961,3.815c12.573.268,18.6-5.941,20.807-12.961a16.906,16.906,0,0,0,1.09-6.161C1235.263,955.6,1233.926,675.784,1233.131,672.217Z" transform="translate(-1072.598 -655.417)" fill="#66a2ff"/>
        <path id="Trazado_100903" data-name="Trazado 100903" d="M1166.423,978.576l-125.845-.811c-7.853-.051-14.2-7.2-14.191-15.961l.472-290.477c.014-8.448,6.265-15.31,13.966-15.335l123.4-.4c7.762-.025,14.11,6.827,14.175,15.314l2.237,291.82C1180.705,971.526,1174.34,978.626,1166.423,978.576Z" transform="translate(-1026.388 -655.55)" fill="#fff"/>
        <path id="Trazado_100904" data-name="Trazado 100904" d="M1175.223,982.9a11.316,11.316,0,0,1-1.59.1l-125.806-.952c-6.748-.051-12.264-6.319-12.252-13.966l.435-290.158c.011-7.375,5.439-13.394,12.058-13.423l123.391-.537c.193,0,.388,0,.58.012a11.675,11.675,0,0,1,8.176,3.979,13.946,13.946,0,0,1,3.477,9.238l2.207,292.115C1185.951,976.233,1181.377,982.076,1175.223,982.9Z" transform="translate(-1033.45 -661.988)"/>
        <path id="Trazado_100905" data-name="Trazado 100905" d="M1193.278,727.521l2.122,291.1-141.726-.849.362-290.25Z" transform="translate(-1047.364 -710.846)" fill="#0050cc"/>
      </g>
      <g id="login" transform="translate(21.527 37.372)">
        <path id="Trazado_100906" data-name="Trazado 100906" d="M1298.6,1322.121h-37.941a5.854,5.854,0,0,1-5.837-5.837h0a5.854,5.854,0,0,1,5.837-5.837H1298.6a5.854,5.854,0,0,1,5.837,5.837h0A5.854,5.854,0,0,1,1298.6,1322.121Z" transform="translate(-1223.52 -1196.338)" fill="#03e6b0"/>
        <rect id="Rectángulo_5216" data-name="Rectángulo 5216" width="109.778" height="11.674" rx="5.837" transform="translate(0 70.778)" fill="#fff"/>
        <path id="Trazado_100907" data-name="Trazado 100907" d="M1223.415,1216.041h-98.1a5.854,5.854,0,0,1-5.837-5.837h0a5.854,5.854,0,0,1,5.837-5.837h98.1a5.854,5.854,0,0,1,5.837,5.837h0A5.854,5.854,0,0,1,1223.415,1216.041Z" transform="translate(-1119.473 -1114.789)" fill="#fff"/>
        <g id="Grupo_53967" data-name="Grupo 53967" transform="translate(20.046 93.026)">
          <path id="Trazado_100908" data-name="Trazado 100908" d="M1210.264,1225.013a2.055,2.055,0,1,1-2.055-2.055A2.055,2.055,0,0,1,1210.264,1225.013Z" transform="translate(-1206.154 -1222.107)" fill="#80b2ff"/>
          <circle id="Elipse_4151" data-name="Elipse 4151" cx="2.055" cy="2.055" r="2.055" transform="translate(6.663 4.489) rotate(-77.994)" fill="#80b2ff"/>
          <circle id="Elipse_4152" data-name="Elipse 4152" cx="2.055" cy="2.055" r="2.055" transform="translate(13.24 2.906) rotate(-45)" fill="#80b2ff"/>
          <circle id="Elipse_4153" data-name="Elipse 4153" cx="2.055" cy="2.055" r="2.055" transform="translate(20.286 2.906) rotate(-45)" fill="#80b2ff"/>
          <circle id="Elipse_4154" data-name="Elipse 4154" cx="2.055" cy="2.055" r="2.055" transform="translate(27.553 1.794) rotate(-22.5)" fill="#80b2ff"/>
          <circle id="Elipse_4155" data-name="Elipse 4155" cx="2.055" cy="2.055" r="2.055" transform="matrix(0.23, -0.973, 0.973, 0.23, 34.811, 4.434)" fill="#80b2ff"/>
          <circle id="Elipse_4156" data-name="Elipse 4156" cx="2.055" cy="2.055" r="2.055" transform="translate(41.423 2.906) rotate(-45)" fill="#80b2ff"/>
          <circle id="Elipse_4157" data-name="Elipse 4157" cx="2.055" cy="2.055" r="2.055" transform="translate(48.469 2.906) rotate(-45)" fill="#80b2ff"/>
          <circle id="Elipse_4158" data-name="Elipse 4158" cx="2.055" cy="2.055" r="2.055" transform="translate(55.736 1.794) rotate(-22.5)" fill="#80b2ff"/>
        </g>
        <g id="Grupo_53970" data-name="Grupo 53970" transform="translate(23.029)">
          <circle id="Elipse_4159" data-name="Elipse 4159" cx="22.552" cy="22.552" r="22.552" transform="translate(0 31.893) rotate(-45)" fill="#fff"/>
          <g id="Grupo_53969" data-name="Grupo 53969" transform="translate(19.356 16.758)">
            <g id="Grupo_53968" data-name="Grupo 53968" transform="translate(5.455)">
              <path id="Trazado_100909" data-name="Trazado 100909" d="M1333.458,903.709a7.124,7.124,0,0,0,5.533-2.71,6.944,6.944,0,0,0,1.525-4.4,7.086,7.086,0,1,0-14.171,0,6.936,6.936,0,0,0,1.525,4.4A7.149,7.149,0,0,0,1333.458,903.709Z" transform="translate(-1326.344 -889.482)" fill="#005cea"/>
            </g>
            <path id="Trazado_100910" data-name="Trazado 100910" d="M1327.823,970.22c0,4.489-25.069,4.489-25.069,0l.008-5.232c.991-7.152,23.024-7.452,25.066,0Z" transform="translate(-1302.754 -943.317)" fill="#005cea"/>
          </g>
        </g>
        <path id="Trazado_100911" data-name="Trazado 100911" d="M1149.325,1216.278v-.313a2.3,2.3,0,1,0-4.593,0v.313h-.349v4.139c0,.715,5.305.715,5.305,0v-4.139Zm-3.774-.313a1.486,1.486,0,1,1,2.972,0v.313h-2.972Zm1.869,2.4v1.2a.38.38,0,0,1-.4.368.354.354,0,0,1-.367-.368v-1.2a.7.7,0,0,1-.368-.613.736.736,0,1,1,1.135.613Z" transform="translate(-1138.622 -1121.94)" fill="#4d4d4d"/>
        <g id="Grupo_53973" data-name="Grupo 53973" transform="translate(5.732 73.189)">
          <g id="Grupo_53972" data-name="Grupo 53972">
            <g id="Grupo_53971" data-name="Grupo 53971" transform="translate(1.178)">
              <path id="Trazado_100912" data-name="Trazado 100912" d="M1150.856,1136.5a1.5,1.5,0,0,0,1.168-.572,1.465,1.465,0,0,0,.322-.929,1.5,1.5,0,1,0-2.99,0,1.462,1.462,0,0,0,.322.929A1.508,1.508,0,0,0,1150.856,1136.5Z" transform="translate(-1149.355 -1133.501)" fill="#4d4d4d"/>
            </g>
            <path id="Trazado_100913" data-name="Trazado 100913" d="M1149.577,1150.538c0,.947-5.317.947-5.317,0l.029-1.1c.209-1.509,4.859-1.573,5.289,0Z" transform="translate(-1144.26 -1144.861)" fill="#4d4d4d"/>
          </g>
          <path id="Trazado_100914" data-name="Trazado 100914" d="M1227.28,1144.333h-21.5a1.718,1.718,0,0,1-1.713-1.713h0a1.718,1.718,0,0,1,1.713-1.713h21.5a1.718,1.718,0,0,1,1.713,1.713h0A1.718,1.718,0,0,1,1227.28,1144.333Z" transform="translate(-1190.237 -1139.194)" fill="#80b2ff"/>
          <path id="Trazado_100915" data-name="Trazado 100915" d="M1349.892,1144.333h-21.5a1.718,1.718,0,0,1-1.713-1.713h0a1.718,1.718,0,0,1,1.713-1.713h21.5a1.718,1.718,0,0,1,1.713,1.713h0A1.718,1.718,0,0,1,1349.892,1144.333Z" transform="translate(-1284.494 -1139.194)" fill="#80b2ff"/>
        </g>
      </g>
      <g id="key" transform="translate(47.503 193.635)">
        <path id="Trazado_100916" data-name="Trazado 100916" d="M1231.8,1621.327v42.528c0,4.726,57.826,4.726,57.826,0v-42.528Z" transform="translate(-1231.798 -1591.587)" fill="#fff"/>
        <g id="Grupo_53974" data-name="Grupo 53974" transform="translate(20.325 37.214)">
          <circle id="Elipse_4160" data-name="Elipse 4160" cx="7.139" cy="7.139" r="7.139" transform="translate(0 13.896) rotate(-76.717)" fill="#005cea"/>
          <path id="Rectángulo_5217" data-name="Rectángulo 5217" d="M0,0H5.852a0,0,0,0,1,0,0V16.374A2.926,2.926,0,0,1,2.926,19.3h0A2.926,2.926,0,0,1,0,16.374V0A0,0,0,0,1,0,0Z" transform="translate(5.662 10.788)" fill="#005cea"/>
        </g>
        <path id="Trazado_100917" data-name="Trazado 100917" d="M1301.4,1519.438h-5.853v-2.863a17.993,17.993,0,1,0-35.985,0v2.863h-5.852v-2.863a23.845,23.845,0,1,1,47.69,0Z" transform="translate(-1248.645 -1492.728)" fill="#fff"/>
      </g>
    </g>
    <g id="shield" transform="translate(683.958 575.254)">
      <g id="Grupo_53978" data-name="Grupo 53978" transform="translate(0 0)">
        <g id="Grupo_53976" data-name="Grupo 53976">
          <g id="Grupo_53975" data-name="Grupo 53975">
            <path id="Trazado_100918" data-name="Trazado 100918" d="M1565.927,1398.4h0c0-.226,0-.325,0-.348C1565.928,1398.089,1565.927,1398.4,1565.927,1398.4Z" transform="translate(-1565.927 -1366.747)" fill="#d9ffff"/>
            <path id="Trazado_100919" data-name="Trazado 100919" d="M1565.927,1398.4h0c0-.226,0-.325,0-.348C1565.928,1398.089,1565.927,1398.4,1565.927,1398.4Z" transform="translate(-1565.927 -1366.747)" fill="#d9ffff"/>
            <path id="Trazado_100920" data-name="Trazado 100920" d="M2148.3,1401s0-.306,0-.348c0,.023,0,.122,0,.348Z" transform="translate(-2013.618 -1368.749)" fill="#d9ffff"/>
            <path id="Trazado_100921" data-name="Trazado 100921" d="M2148.3,1401s0-.306,0-.348c0,.023,0,.122,0,.348Z" transform="translate(-2013.618 -1368.749)" fill="#d9ffff"/>
            <path id="Trazado_100922" data-name="Trazado 100922" d="M1644.121,1262.7c-14.908,15.97-38.7,29.057-64.153,34.633-.008,1.7-.05,11.12-.244,54.536-.259,57.916,54.86,86.218,63.417,90.561,8.291-3.816,64.105-32.074,64.364-89.99.194-43.416.236-52.835.244-54.535C1682.344,1292.1,1658.886,1278.805,1644.121,1262.7Z" transform="translate(-1576.533 -1262.703)" fill="#fff"/>
          </g>
        </g>
        <g id="Grupo_53977" data-name="Grupo 53977" transform="translate(7.148 6.281)">
          <path id="Trazado_100923" data-name="Trazado 100923" d="M1657.144,1289.864c-15.369,14.1-36.661,25.18-60.074,31.22l-.231,51.658c-.106,23.637,9.285,45.02,27.911,63.558a133.519,133.519,0,0,0,31.636,23.131c.281-.142.589-.3.892-.461V1289.984C1657.234,1289.944,1657.187,1289.9,1657.144,1289.864Z" transform="translate(-1596.838 -1289.864)" fill="#80b2ff"/>
          <path id="Trazado_100924" data-name="Trazado 100924" d="M1858.19,1290.385V1459.37a133.561,133.561,0,0,0,30.949-22.387c18.79-18.37,28.372-39.669,28.477-63.306l.231-51.659C1894.556,1315.789,1873.421,1304.563,1858.19,1290.385Z" transform="translate(-1797.75 -1290.265)" fill="#4d93ff"/>
        </g>
        <path id="Trazado_100925" data-name="Trazado 100925" d="M1763.443,1514.283c-17.825,2.749-42.1,19.006-57.409,38.554-2.148-9.217-11.79-17.632-16.834-19.471l-15.283,15.362c9.543,4.3,19.971,16.485,21.353,28.959l15.267,2.366c6.437-12.715,23.061-43.129,56.134-59.482A25.053,25.053,0,0,0,1763.443,1514.283Z" transform="translate(-1648.943 -1456.103)" fill="#0046b3"/>
      </g>
    </g>
    <g id="lady" transform="translate(436.269 505.119)">
      <g id="Grupo_53987" data-name="Grupo 53987" transform="translate(0 0)">
        <path id="Trazado_100926" data-name="Trazado 100926" d="M740.843,1105.693l-2.688,10.8-.489,2.009c-.543,2.552-17.4,1.466-16.207-1.52l1-2.2,5.185-11.375Z" transform="translate(-669.015 -1070.114)" fill="#f7a58e"/>
        <g id="Grupo_53980" data-name="Grupo 53980" transform="translate(41.351)">
          <g id="Grupo_53979" data-name="Grupo 53979" transform="translate(9.512 3.221)">
            <path id="Trazado_100927" data-name="Trazado 100927" d="M745.64,989.683c.172,11.715-5.267,21.242-13.777,21.2s-16.744-7.262-17.042-21.35a15.7,15.7,0,0,1,15.488-16.18C738.82,973.395,745.508,980.707,745.64,989.683Z" transform="translate(-714.817 -973.353)" fill="#f7a58e"/>
          </g>
          <path id="Trazado_100928" data-name="Trazado 100928" d="M698.947,959.424s16.958.837,18.368,13.681c1.883,11.272-6.574,2.985-10.026,10.55-3.954,8.665.076,15.005,5.216,16.728-4.569,6.38-30.7,6.15-37.423-5.044C670.476,981.3,676.992,960.2,698.947,959.424Z" transform="translate(-673.688 -959.424)"/>
          <path id="Trazado_100929" data-name="Trazado 100929" d="M813.361,1052.544a3.159,3.159,0,1,1-3.4-2.893A3.16,3.16,0,0,1,813.361,1052.544Z" transform="translate(-776.211 -1028.777)" fill="#f7a58e"/>
        </g>
        <path id="Trazado_100930" data-name="Trazado 100930" d="M822.042,2002.706c.795-.842,4.545-.855,4.887.39s-.318,2.135,1.264,4.108a16.017,16.017,0,0,1-5.129,0C822.075,2006.917,821.247,2003.549,822.042,2002.706Z" transform="translate(-746.138 -1760.982)" fill="#fff"/>
        <path id="Trazado_100931" data-name="Trazado 100931" d="M735.529,1541.357h9.138c.854-38.666.691-80.758.383-112.459-.111-11.353-.424-17.095-2.482-23.911-4.159-13.763-23.711-9.526-25.1,2.949-.578,6.923-1,20.428,11.8,66.317C723.724,1494.459,733.392,1518.683,735.529,1541.357Z" transform="translate(-665.822 -1295.377)" fill="#00050d"/>
        <path id="Trazado_100932" data-name="Trazado 100932" d="M803.457,2016.358c-1.346-.072-4.489-1.367-5.081-2.262-.873.976-2.692,1.246-4.887.919-2.593-.387-2.935-1.592-4.8-1.432-.784,2.18-2.694,7.073-.852,8.208h19.211C808.769,2020.225,808.724,2016.882,803.457,2016.358Z" transform="translate(-719.494 -1769.789)" fill="#03e6b0"/>
        <g id="Grupo_53981" data-name="Grupo 53981" transform="translate(21.1 102.018)">
          <path id="Trazado_100933" data-name="Trazado 100933" d="M621.047,2007.252c.668-.708,3.819-.719,4.107.328s-.267,1.794,1.062,3.453a13.475,13.475,0,0,1-4.31,0C621.075,2010.791,620.379,2007.96,621.047,2007.252Z" transform="translate(-612.765 -1866.568)" fill="#fff"/>
          <path id="Trazado_100934" data-name="Trazado 100934" d="M629.678,1410.758c-1.869-14.255-27.229-12.791-28.915-.344-.609,6.7-2.469,16.779,2.3,66.527-10.053,18.985-7.213,46.225-10.216,66.278-.332,3.051,8.311,3.784,8.982,1.065,9.21-37.2,22.081-78.944,26.866-109.9C630.427,1423.168,630.6,1417.818,629.678,1410.758Z" transform="translate(-591.281 -1400.568)" fill="#00050d"/>
          <path id="Trazado_100935" data-name="Trazado 100935" d="M601.2,2014.048c-1.346-.072-3.33-1.823-3.923-2.718a5.393,5.393,0,0,1-4.736,1.964c-2.593-.387-2.935-1.592-4.795-1.432-.784,2.18-2.694,7.073-.852,8.208h18.687C607.3,2018.5,606.47,2014.572,601.2,2014.048Z" transform="translate(-586.121 -1870.086)" fill="#03e6b0"/>
        </g>
        <g id="Grupo_53983" data-name="Grupo 53983" transform="translate(62.993 24.465)">
          <path id="Trazado_100936" data-name="Trazado 100936" d="M921.15,1118.357l-4.73,1.049c.107,2.489-.191,6.464,0,10.853l7.955-1.048C923.164,1124.792,922,1120.918,921.15,1118.357Z" transform="translate(-881.877 -1106.068)" fill="#f7a58e"/>
          <path id="Trazado_100937" data-name="Trazado 100937" d="M801.813,1166.341c-.177,8.7-.409,12.424-.481,15.851l-23.6-15.138c-7.192-2.184-15.579,12.052-6.485,18.476,0,0,31.433,17.748,38.5,12.636,3.825-2.766,2.833-22.606.02-32.873Z" transform="translate(-767.27 -1142.149)" fill="#ffd947"/>
          <g id="Grupo_53982" data-name="Grupo 53982" transform="translate(33.184)">
            <path id="Trazado_100938" data-name="Trazado 100938" d="M921.907,1092.346c-2.186-2.563-6.984-1.669-7.348-1.6l.461,7.089c.108,3.5,4.449,3.62,6.217.6C921.238,1098.437,923.8,1094.87,921.907,1092.346Z" transform="translate(-913.681 -1084.683)" fill="#f7a58e"/>
            <path id="Trazado_100939" data-name="Trazado 100939" d="M913.963,1071.948c-1.593-7.722-3.2-6.687-3.2-6.687s.258,2.728.977,7.543C912.279,1075.532,914.16,1073.887,913.963,1071.948Z" transform="translate(-910.763 -1065.215)" fill="#f7a58e"/>
          </g>
        </g>
        <path id="Trazado_100940" data-name="Trazado 100940" d="M675.567,1181.323c1.6-7.8,2.462-15.5-5.577-20.343-4.766-2.871-20.087-4.922-27.251-2.551-7.218,3.226-5.657,17.3-7.01,39.515-4.974,11.088-7.137,14.731-8.609,25.531,0,0,2.661,8.137,21.409,8.148,8.513.005,21.051-.752,26.755-5.094-.569-7.365-3.648-14.461-4.932-24.887C670.352,1201.64,675.451,1182.218,675.567,1181.323Z" transform="translate(-596.538 -1111.609)" fill="#ffd947"/>
        <g id="Grupo_53986" data-name="Grupo 53986" transform="translate(0 46.498)">
          <g id="Grupo_53984" data-name="Grupo 53984" transform="translate(3.549)">
            <path id="Trazado_100941" data-name="Trazado 100941" d="M558.338,1162.378c-8.8,6.718-17.382,17.282-21.438,22.892s-14.562,28.156-14.562,28.156l6.686,4.929,18.086-24.644,22.095-18.123C576.873,1167.764,566.909,1155.834,558.338,1162.378Z" transform="translate(-519.537 -1160.488)" fill="#ffd947"/>
            <path id="Trazado_100942" data-name="Trazado 100942" d="M510.224,1384.359l4.334-8.955c1.019,2.693,5.981,5.15,7.406,5.1,0,0-4.66,6.706-5.8,7.846S510.318,1387.558,510.224,1384.359Z" transform="translate(-510.224 -1325.703)" fill="#f7a58e"/>
          </g>
          <g id="Grupo_53985" data-name="Grupo 53985" transform="translate(0 57.576)">
            <path id="Trazado_100943" data-name="Trazado 100943" d="M505.464,1413.356c-.017.067,0,.157-.015.224a6.434,6.434,0,0,1-3.4,5.166.394.394,0,0,1-.174.069c2.356-.472,3.061,2.685,1.863,3.413-3.467,2.347-8.408-.881-8.826-2.839-.424-1.988,3.525-8.563,3.525-8.563C500.451,1409.2,505.607,1409.451,505.464,1413.356Z" transform="translate(-494.879 -1409.783)" fill="#f7a58e"/>
            <path id="Trazado_100944" data-name="Trazado 100944" d="M513.974,1423.071a6.212,6.212,0,0,1-3.519,5.211c-1.942-.054-2.634-.171-4.487-.166,1.21-.59,3.69-2.159,2.73-5.206C510.6,1421.455,513.455,1422.726,513.974,1423.071Z" transform="translate(-503.404 -1419.274)" fill="#e6856a"/>
            <path id="Trazado_100945" data-name="Trazado 100945" d="M521.43,1412.835c.511,3.041.295,7.372-.428,9.279,0,0-1.864.1-1.689-3.422.045-.916-.087-2.906-.993-3.568-2.79-1.844-3.24-3.535-2.216-4.923C517.467,1408.351,521.322,1410.228,521.43,1412.835Z" transform="translate(-510.809 -1409.457)" fill="#f7a58e"/>
            <path id="Trazado_100946" data-name="Trazado 100946" d="M502.09,1453.817c1.514,1.05,5.521,3.084,6.153,2.582s-2.572-3.913-4.64-4.364S501.314,1453.28,502.09,1453.817Z" transform="translate(-500.106 -1442.131)" fill="#f7a58e"/>
          </g>
        </g>
      </g>
    </g>
  </g>
</svg>
