<svg xmlns="http://www.w3.org/2000/svg" width="40" height="40" viewBox="0 0 40 40">
  <g id="Filled_outline" data-name="Filled outline" transform="translate(0 0)">
    <path id="Trazado_101278" data-name="Trazado 101278" d="M90.667,72h26.667A2.667,2.667,0,0,1,120,74.667V95.333a2,2,0,0,1-2,2H90a2,2,0,0,1-2-2V74.667A2.667,2.667,0,0,1,90.667,72Z" transform="translate(-82 -67.334)" fill="#4db7e5"/>
    <path id="Trazado_101279" data-name="Trazado 101279" d="M432.667,72H432V97.333h1.333V72.084A2.672,2.672,0,0,0,432.667,72Z" transform="translate(-397.333 -67.334)" fill="#48add9"/>
    <path id="Trazado_101280" data-name="Trazado 101280" d="M150.667,24h-20A2.667,2.667,0,0,0,128,26.667v28h25.333v-28A2.667,2.667,0,0,0,150.667,24Z" transform="translate(-118.667 -23.334)" fill="#0077ec"/>
    <path id="Trazado_101281" data-name="Trazado 101281" d="M164.333,100,140,124.333h24.333Z" transform="translate(-129.667 -93)" fill="#004080" opacity="0.2"/>
    <path id="Trazado_101282" data-name="Trazado 101282" d="M193.333,128.667q0,.336-.025.667a8.655,8.655,0,0,1-7.435,7.916c-.178.026-.358.045-.54.059q-.33.025-.667.025t-.667-.025c-.182-.014-.362-.033-.54-.059a8.556,8.556,0,0,1-2.018-.536,8.666,8.666,0,0,1-5.417-7.38Q176,129,176,128.667t.025-.667a8.656,8.656,0,0,1,7.341-7.9q.314-.047.634-.073t.667-.025q.337,0,.667.025c.182.014.362.033.54.059a8.553,8.553,0,0,1,2.017.535,8.7,8.7,0,0,1,4.467,4.048,8.6,8.6,0,0,1,.952,3.333Q193.333,128.33,193.333,128.667Z" transform="translate(-162.667 -111.334)" fill="#004080" opacity="0.5"/>
    <path id="Trazado_101283" data-name="Trazado 101283" d="M193.308,129.333q.025-.33.025-.667t-.025-.667h-3.321a16.958,16.958,0,0,0-.457-3.333h2.826a8.615,8.615,0,0,0-.858-1.333h-2.353a13.712,13.712,0,0,0-1.255-2.714,8.552,8.552,0,0,0-2.017-.535l.465.6a11.678,11.678,0,0,1,1.391,2.649h-2.4v-3.308Q185,120,184.667,120t-.667.025v3.308h-2.4a11.636,11.636,0,0,1,1.4-2.659c.008-.011.015-.022.022-.033l.341-.543a8.583,8.583,0,0,0-1.923.522,13.667,13.667,0,0,0-1.255,2.714h-2.353a8.615,8.615,0,0,0-.858,1.333H179.8a16.937,16.937,0,0,0-.457,3.333h-3.321q-.025.33-.025.667t.025.667h3.322a16.706,16.706,0,0,0,.637,4h-2.622a8.7,8.7,0,0,0,1.052,1.333h2.022a12.969,12.969,0,0,0,1.007,2.047,8.555,8.555,0,0,0,2.018.536l-.465-.6a11.041,11.041,0,0,1-1.118-1.982H184v2.642q.33.025.667.025t.667-.025v-2.642h2.122a11,11,0,0,1-1.118,1.982l-.465.6a8.553,8.553,0,0,0,2.018-.536,12.892,12.892,0,0,0,1.007-2.047h2.022a8.7,8.7,0,0,0,1.052-1.333H189.35a16.733,16.733,0,0,0,.637-4Zm-9.308,4h-2.622a15.242,15.242,0,0,1-.7-4H184ZM184,128h-3.32a15.493,15.493,0,0,1,.5-3.333H184Zm3.956,5.333h-2.622v-4h3.319a15.272,15.272,0,0,1-.7,4ZM185.333,128v-3.333h2.822a15.517,15.517,0,0,1,.5,3.333Z" transform="translate(-162.667 -111.334)" fill="#004080"/>
    <path id="Trazado_101284" data-name="Trazado 101284" d="M93.724,360.667a2.276,2.276,0,0,1-1.609.667H86.667a2.276,2.276,0,0,1-1.609-.667A2.276,2.276,0,0,0,83.448,360H72v2a2,2,0,0,0,2,2h30.667a2,2,0,0,0,2-2v-2H95.333a2.276,2.276,0,0,0-1.609.667Z" transform="translate(-67.333 -331.334)" fill="#e0e0de"/>
    <path id="Trazado_101285" data-name="Trazado 101285" d="M434,360v2a2,2,0,0,1-2,2h2.667a2,2,0,0,0,2-2v-2Z" transform="translate(-397.333 -331.334)" fill="#d6d6d4"/>
    <path id="Trazado_101286" data-name="Trazado 101286" d="M42.667,353.5v8.333a1.482,1.482,0,0,1-.2.756,1.5,1.5,0,0,1-1.295.744H25.5a1.5,1.5,0,0,1-1.3-.744,1.482,1.482,0,0,1-.2-.756V353.5a1.482,1.482,0,0,1,.2-.756A1.5,1.5,0,0,1,25.5,352H41.167a1.5,1.5,0,0,1,1.295.744A1.482,1.482,0,0,1,42.667,353.5Z" transform="translate(-23.333 -324)" fill="#ffd947"/>
    <path id="Trazado_101287" data-name="Trazado 101287" d="M44.717,352.744a19.782,19.782,0,0,1-9.128,1.895,19.782,19.782,0,0,1-9.128-1.895,1.5,1.5,0,0,1,1.3-.744H43.422A1.5,1.5,0,0,1,44.717,352.744Z" transform="translate(-25.588 -324)" fill="#004080" opacity="0.2"/>
    <path id="Trazado_101288" data-name="Trazado 101288" d="M44.717,458.225a1.5,1.5,0,0,1-1.3.744H27.755a1.5,1.5,0,0,1-1.3-.744,19.782,19.782,0,0,1,9.128-1.895A19.782,19.782,0,0,1,44.717,458.225Z" transform="translate(-25.588 -419.636)" fill="#004080" opacity="0.2"/>
    <path id="Trazado_101289" data-name="Trazado 101289" d="M55.333,216A7.333,7.333,0,0,0,48,223.333v4h2.667v-4a4.667,4.667,0,0,1,9.333,0v4h2.667v-4A7.333,7.333,0,0,0,55.333,216Z" transform="translate(-45.333 -199.334)" fill="#e0e0de"/>
    <path id="Trazado_101290" data-name="Trazado 101290" d="M116,393.9a2,2,0,1,0-2.667,1.877v1.456h1.333v-1.456A2,2,0,0,0,116,393.9Z" transform="translate(-103.997 -360.572)" fill="#03e6b0"/>
    <path id="Trazado_101291" data-name="Trazado 101291" d="M114,44h-.667V23.333A3.337,3.337,0,0,0,110,20v-.667A3.337,3.337,0,0,0,106.667,16h-20a3.337,3.337,0,0,0-3.333,3.333V20A3.337,3.337,0,0,0,80,23.333v8h1.333v-8a2,2,0,0,1,2-2v9.333h1.333V19.333a2,2,0,0,1,2-2h20a2,2,0,0,1,2,2V42H110V21.333a2,2,0,0,1,2,2V44h-9.333a2.92,2.92,0,0,0-2.078.862,1.6,1.6,0,0,1-1.142.471H96v1.333h3.447a2.928,2.928,0,0,0,2.085-.862,1.6,1.6,0,0,1,1.135-.471h10.667v1.333A1.335,1.335,0,0,1,112,48H96v1.333h16a2.67,2.67,0,0,0,2.667-2.667v-2A.667.667,0,0,0,114,44Z" transform="translate(-74.667 -16)" fill="#004080"/>
    <path id="Trazado_101292" data-name="Trazado 101292" d="M120,272h1.333v4.667H120Z" transform="translate(-111.333 -250.667)" fill="#004080"/>
    <path id="Trazado_101293" data-name="Trazado 101293" d="M159.995,48h1.333v1.333h-1.333Z" transform="translate(-147.995 -45.334)" fill="#004080"/>
    <path id="Trazado_101294" data-name="Trazado 101294" d="M191.995,48h1.333v1.333h-1.333Z" transform="translate(-177.329 -45.334)" fill="#004080"/>
    <path id="Trazado_101295" data-name="Trazado 101295" d="M223.995,48h1.333v1.333h-1.333Z" transform="translate(-206.662 -45.334)" fill="#004080"/>
    <path id="Trazado_101296" data-name="Trazado 101296" d="M160,80h20v1.333H160Z" transform="translate(-148 -74.667)" fill="#004080"/>
    <path id="Trazado_101297" data-name="Trazado 101297" d="M178.043,129.07c-.141-.036-.283-.077-.423-.122l-.408,1.27c.164.053.332.1.494.143a9.332,9.332,0,1,0-5.484-14.052A9.216,9.216,0,0,0,171,119.182l1.3.307a7.879,7.879,0,0,1,.86-2.153h2.062a17.033,17.033,0,0,0-.469,4c0,.462.019.928.055,1.387l1.329-.106c-.016-.2-.028-.408-.037-.613h3.319v4h-2v1.333h2v1.97a7.98,7.98,0,0,1-1.374-.236Zm7.325-1.734a8.032,8.032,0,0,1-1.517,1.054c.168-.341.323-.692.464-1.054ZM186.578,126h-1.812a16.767,16.767,0,0,0,.637-4h2.653A7.859,7.859,0,0,1,186.578,126Zm-8.294-12.461a7.967,7.967,0,0,1,1.132-.176V116h-2.394A11.79,11.79,0,0,1,178.284,113.542Zm2.466-.176a7.981,7.981,0,0,1,1.133.176A11.786,11.786,0,0,1,183.144,116H180.75Zm2.822,3.97a15.505,15.505,0,0,1,.5,3.333H180.75v-3.333Zm4.483,3.333H185.4a16.918,16.918,0,0,0-.457-3.333h2.061a7.925,7.925,0,0,1,1.046,3.333ZM186.043,116h-1.482a14.325,14.325,0,0,0-.716-1.73,7.926,7.926,0,0,1,2.2,1.73Zm-9.721-1.73a14.32,14.32,0,0,0-.716,1.73h-1.482A7.925,7.925,0,0,1,176.322,114.272Zm-.224,6.4a15.5,15.5,0,0,1,.5-3.333h2.822v3.333ZM180.75,122h3.319a15.271,15.271,0,0,1-.7,4H180.75Zm2.121,5.333a11.117,11.117,0,0,1-.987,1.794,7.956,7.956,0,0,1-1.134.177v-1.97Z" transform="translate(-158.083 -104.002)" fill="#004080"/>
    <path id="Trazado_101298" data-name="Trazado 101298" d="M34,219.347V216a8,8,0,0,0-16,0v3.347a2.245,2.245,0,0,0-2,2.228v8.183A2.244,2.244,0,0,0,18.242,232H33.758A2.244,2.244,0,0,0,36,229.758v-8.183A2.245,2.245,0,0,0,34,219.347Zm-8-10.013A6.674,6.674,0,0,1,32.667,216v3.333H31.333V216a5.333,5.333,0,0,0-10.667,0v3.333H19.333V216A6.674,6.674,0,0,1,26,209.333Zm4,10H22V216a4,4,0,0,1,8,0Zm4.667,10.425a.909.909,0,0,1-.908.908H18.242a.909.909,0,0,1-.908-.908v-8.183a.909.909,0,0,1,.908-.908H33.758a.909.909,0,0,1,.908.908Z" transform="translate(-16 -192)" fill="#004080"/>
    <path id="Trazado_101299" data-name="Trazado 101299" d="M114.007,392a2,2,0,0,0-.667,3.885v1.448h1.333v-1.448a2,2,0,0,0-.667-3.885Zm0,2.667a.667.667,0,1,1,.667-.667A.667.667,0,0,1,114.007,394.667Z" transform="translate(-104.007 -360.667)" fill="#004080"/>
  </g>
</svg>
