<svg xmlns="http://www.w3.org/2000/svg" xmlns:xlink="http://www.w3.org/1999/xlink" width="73" height="61" viewBox="0 0 73 61">
  <defs>
    <clipPath id="clip-path">
      <rect id="Rectángulo_5437" data-name="Rectángulo 5437" width="73" height="61" transform="translate(123.836 93.174)" fill="#fff" stroke="#707070" stroke-width="1"/>
    </clipPath>
  </defs>
  <g id="Enmascarar_grupo_69" data-name="Enmascarar grupo 69" transform="translate(-123.836 -93.174)" clip-path="url(#clip-path)">
    <g id="la-seguridad-cibernetica" transform="translate(130.184 93.835)">
      <g id="Grupo_57781" data-name="Grupo 57781" transform="translate(7.737 31.008)">
        <circle id="Elipse_4230" data-name="Elipse 4230" cx="8.704" cy="8.704" r="8.704" fill="#03e6b0"/>
      </g>
      <g id="Grupo_57782" data-name="Grupo 57782" transform="translate(30.949 43.581)">
        <path id="Trazado_106452" data-name="Trazado 106452" d="M50.531,71.155H71.808v11.6H50.531Z" transform="translate(-50.531 -71.155)" fill="#03e6b0"/>
      </g>
      <g id="Grupo_57783" data-name="Grupo 57783" transform="translate(0)">
        <path id="Trazado_106453" data-name="Trazado 106453" d="M48.906,11.146l.314.908a47.512,47.512,0,0,1,2.612,15.11l.007.638,8.926,3.72a1.941,1.941,0,0,0,1.486,0L71.175,27.8l.007-.638a47.512,47.512,0,0,1,2.612-15.11l.314-.908L61.507,6.7Zm20.352,15.36-6.784,2.826v-5.4H60.539v5.4l-6.783-2.826a49.435,49.435,0,0,0-2.4-14.171l9.187-3.242V22h1.934V9.092l9.187,3.241a49.447,49.447,0,0,0-2.4,14.173Z" transform="translate(-18.952 -2.596)" fill="#004080"/>
        <path id="Trazado_106454" data-name="Trazado 106454" d="M42.555,0,24.805,6.265l.424.957a43.771,43.771,0,0,1,2.737,8.312H2.9a2.9,2.9,0,0,0-2.9,2.9V57.121a2.9,2.9,0,0,0,2.9,2.9H53.193a2.9,2.9,0,0,0,2.9-2.9V25.059A43.613,43.613,0,0,1,59.88,7.222l.424-.957ZM2.9,17.468H28.347a43.77,43.77,0,0,1,.623,5.8H1.934V18.435A.968.968,0,0,1,2.9,17.468ZM54.161,57.121a.968.968,0,0,1-.967.967H2.9a.968.968,0,0,1-.967-.967V25.205H29.015v2.579L40.323,32.5a5.8,5.8,0,0,0,4.464,0l9.371-3.905Zm0-32.063v1.435L44.042,30.709a3.886,3.886,0,0,1-2.975,0L30.95,26.494V25.059A45.533,45.533,0,0,0,27.412,7.4L42.555,2.051,57.7,7.4a45.533,45.533,0,0,0-3.538,17.663Z" transform="translate(0)" fill="#004080"/>
        <path id="Trazado_106455" data-name="Trazado 106455" d="M12.633,31.678h1.934v1.934H12.633Z" transform="translate(-4.896 -12.276)" fill="#004080"/>
        <path id="Trazado_106456" data-name="Trazado 106456" d="M18.949,31.678h1.934v1.934H18.949Z" transform="translate(-7.343 -12.276)" fill="#004080"/>
        <path id="Trazado_106457" data-name="Trazado 106457" d="M6.316,31.678H8.251v1.934H6.316Z" transform="translate(-2.448 -12.276)" fill="#004080"/>
        <path id="Trazado_106458" data-name="Trazado 106458" d="M18.89,44.311A12.573,12.573,0,1,0,31.463,56.884,12.573,12.573,0,0,0,18.89,44.311Zm0,23.213c-1.041,0-2.147-1.477-2.91-3.868H21.8c-.762,2.392-1.869,3.867-2.909,3.867Zm-3.4-5.8a23.983,23.983,0,0,1-.445-3.868h7.7a24.092,24.092,0,0,1-.445,3.868ZM8.3,57.851h4.8a26.524,26.524,0,0,0,.4,3.868H9.425A10.541,10.541,0,0,1,8.3,57.851ZM18.89,46.245c1.041,0,2.147,1.477,2.91,3.868H15.981C16.743,47.721,17.85,46.245,18.89,46.245Zm3.4,5.8a23.983,23.983,0,0,1,.445,3.868h-7.7a24.093,24.093,0,0,1,.445-3.868Zm-9.187,3.868H8.3a10.542,10.542,0,0,1,1.126-3.868H13.5a26.378,26.378,0,0,0-.4,3.868Zm11.564,1.934h4.808a10.542,10.542,0,0,1-1.121,3.869h-4.08a26.405,26.405,0,0,0,.4-3.868Zm0-1.934a26.525,26.525,0,0,0-.4-3.868h4.083a10.56,10.56,0,0,1,1.126,3.868Zm2.419-5.8h-3.26a13.366,13.366,0,0,0-1.347-3.231,10.678,10.678,0,0,1,4.61,3.231ZM15.3,46.883a13.4,13.4,0,0,0-1.347,3.231H10.689A10.675,10.675,0,0,1,15.3,46.883ZM10.689,63.654h3.262A13.366,13.366,0,0,0,15.3,66.886a10.694,10.694,0,0,1-4.609-3.231Zm11.793,3.23a13.4,13.4,0,0,0,1.347-3.231h3.262A10.666,10.666,0,0,1,22.481,66.884Z" transform="translate(-2.448 -17.172)" fill="#004080"/>
        <path id="Trazado_106459" data-name="Trazado 106459" d="M6.316,88.525H8.251v1.934H6.316Z" transform="translate(-2.448 -34.306)" fill="#004080"/>
        <path id="Trazado_106460" data-name="Trazado 106460" d="M12.633,88.525h20.31v1.934H12.633Z" transform="translate(-4.896 -34.306)" fill="#004080"/>
        <path id="Trazado_106461" data-name="Trazado 106461" d="M50.531,62.747H71.808v-5.8H50.531Zm1.934-3.87H69.874v1.935H52.465Z" transform="translate(-19.582 -22.067)" fill="#004080"/>
        <path id="Trazado_106462" data-name="Trazado 106462" d="M50.531,75.893h1.934v1.934H50.531Z" transform="translate(-19.582 -29.41)" fill="#004080"/>
        <path id="Trazado_106463" data-name="Trazado 106463" d="M56.847,75.893H74.256v1.934H56.847Z" transform="translate(-22.03 -29.41)" fill="#004080"/>
        <path id="Trazado_106464" data-name="Trazado 106464" d="M50.531,82.209H71.808v1.934H50.531Z" transform="translate(-19.582 -31.858)" fill="#004080"/>
        <path id="Trazado_106465" data-name="Trazado 106465" d="M50.531,88.525H71.808v1.934H50.531Z" transform="translate(-19.582 -34.306)" fill="#004080"/>
        <path id="Trazado_106466" data-name="Trazado 106466" d="M50.531,69.576H71.808V71.51H50.531Z" transform="translate(-19.582 -26.962)" fill="#004080"/>
      </g>
    </g>
  </g>
</svg>
