<svg xmlns="http://www.w3.org/2000/svg" xmlns:xlink="http://www.w3.org/1999/xlink" width="79" height="65" viewBox="0 0 79 65">
  <defs>
    <clipPath id="clip-path">
      <rect id="Rectángulo_5440" data-name="Rectángulo 5440" width="79" height="65" transform="translate(-0.454 -0.274)" fill="#fff" stroke="#707070" stroke-width="1"/>
    </clipPath>
  </defs>
  <g id="Enmascarar_grupo_72" data-name="Enmascarar grupo 72" transform="translate(0.454 0.274)" clip-path="url(#clip-path)">
    <g id="seguridad-de-internet" transform="translate(6.633 -0.186)">
      <g id="Grupo_57788" data-name="Grupo 57788" transform="translate(4.192 7.761)">
        <path id="Trazado_106485" data-name="Trazado 106485" d="M34.632,38.541l-4.195,4.195H15.758V38.541H11.564V34.347h4.195V30.152H30.438l4.195,4.195h6.882a42.12,42.12,0,0,0,.458-6.086v-3.2l-.517-.3a9.647,9.647,0,0,1-4.407-5.8l-.117-.441L24.147,11.7,11.364,18.515l-.116.44a9.667,9.667,0,0,1-4.411,5.783l-.518.3V28.26A41.191,41.191,0,0,0,22.324,60.984a2.968,2.968,0,0,0,3.644,0A41.009,41.009,0,0,0,40.625,38.75l.043-.21Z" transform="translate(-6.319 -11.7)" fill="#3392f0"/>
      </g>
      <g id="Grupo_57789" data-name="Grupo 57789" transform="translate(0 0)">
        <path id="Trazado_106486" data-name="Trazado 106486" d="M75.871,44.258h14.68v2.1H75.871Z" transform="translate(-25.54 -14.898)" fill="#004080"/>
        <path id="Trazado_106487" data-name="Trazado 106487" d="M75.871,50.581h14.68v2.1H75.871Z" transform="translate(-25.54 -17.027)" fill="#004080"/>
        <path id="Trazado_106488" data-name="Trazado 106488" d="M74.165,87.984a3.142,3.142,0,0,0-2.953,2.1H59.92l-3.146-3.146H49v2.1h6.906l3.146,3.146H71.212a3.14,3.14,0,1,0,2.953-4.195Zm0,4.195a1.049,1.049,0,1,1,1.049-1.049A1.049,1.049,0,0,1,74.165,92.178Z" transform="translate(-16.495 -29.265)" fill="#004080"/>
        <path id="Trazado_106489" data-name="Trazado 106489" d="M81.552,75.339a3.141,3.141,0,0,0-2.953,2.1H69.4L66.256,74.29H58.484v2.1H65.39l3.146,3.146H78.6a3.14,3.14,0,1,0,2.953-4.195Zm0,4.195A1.049,1.049,0,1,1,82.6,78.485a1.049,1.049,0,0,1-1.049,1.049Z" transform="translate(-19.687 -25.008)" fill="#004080"/>
        <path id="Trazado_106490" data-name="Trazado 106490" d="M83.68,62.694a3.141,3.141,0,0,0-2.953,2.1h-5L72.58,61.645H64.806v2.1h6.906l3.146,3.146h5.87a3.14,3.14,0,1,0,2.953-4.195Zm0,4.195a1.049,1.049,0,1,1,1.049-1.049,1.049,1.049,0,0,1-1.049,1.049Z" transform="translate(-21.815 -20.751)" fill="#004080"/>
        <path id="Trazado_106491" data-name="Trazado 106491" d="M59.92,4.195H71.212a3.146,3.146,0,1,0,0-2.1H59.051L55.906,5.241H49v2.1h7.774ZM74.165,2.1a1.049,1.049,0,1,1-1.049,1.049A1.049,1.049,0,0,1,74.165,2.1Z" transform="translate(-16.495 0)" fill="#004080"/>
        <path id="Trazado_106492" data-name="Trazado 106492" d="M61.865,18.3a3.141,3.141,0,0,0-2.953,2.1h-5.87L49.9,23.545H44.039v-4l-.944-.191a5.33,5.33,0,0,1-3.251-2.1h6.724l3.146-3.146h9.2a3.146,3.146,0,1,0,0-2.1H48.849l-3.143,3.145h-6.8a5.188,5.188,0,0,1-.114-1.049v-.629L22.02,4.532,5.241,13.479v.629a5.361,5.361,0,0,1-4.3,5.241L0,19.542v6.307A45.358,45.358,0,0,0,17.623,61.883a7.164,7.164,0,0,0,8.793,0A45.8,45.8,0,0,0,42.6,37.177h5.639V30.885H43.723a45.329,45.329,0,0,0,.319-5.037v-.206h6.722L53.91,22.5h5A3.14,3.14,0,1,0,61.865,18.3Zm0-6.291a1.049,1.049,0,1,1-1.049,1.049,1.049,1.049,0,0,1,1.049-1.049ZM46.136,35.08H33.554v-2.1H46.136Zm-13.2-4.195-4.195-4.195H12.583v4.195H8.388v6.291h4.195v4.195H28.745l4.195-4.195H40.43a43.7,43.7,0,0,1-15.3,23.05,5.2,5.2,0,0,1-6.218,0A43.275,43.275,0,0,1,2.1,25.848v-4.63a7.474,7.474,0,0,0,5.215-6.467L22.02,6.908l14.707,7.844a7.487,7.487,0,0,0,5.215,6.458v4.638a43.129,43.129,0,0,1-.332,5.037Zm-5.677,0H14.68V28.79H27.265Zm0,2.1v2.1H10.485v-2.1ZM14.68,37.177H27.265v2.095H14.68Zm14.68-6.906,2.1,2.1v3.326l-2.1,2.1ZM61.865,22.5a1.049,1.049,0,1,1,1.049-1.049A1.049,1.049,0,0,1,61.865,22.5Z" transform="translate(0 -1.526)" fill="#004080"/>
        <path id="Trazado_106493" data-name="Trazado 106493" d="M31.613,11.7h2.1V27.007h-2.1Z" transform="translate(-10.642 -3.939)" fill="#004080"/>
        <path id="Trazado_106494" data-name="Trazado 106494" d="M31.613,63.226h2.1V78.955h-2.1Z" transform="translate(-10.642 -21.284)" fill="#004080"/>
      </g>
    </g>
  </g>
</svg>
