<svg xmlns="http://www.w3.org/2000/svg" width="398.965" height="331.887" viewBox="0 0 398.965 331.887">
  <g id="Grupo_57864" data-name="Grupo 57864" transform="translate(-278.035 -268.996)">
    <path id="Trazado_101655" data-name="Trazado 101655" d="M593.133,1448.623a84.028,84.028,0,1,1-37.913-70.274A84.059,84.059,0,0,1,593.133,1448.623Z" transform="translate(-31.599 -981.714)"/>
    <path id="Trazado_101656" data-name="Trazado 101656" d="M593.133,1448.623a84.028,84.028,0,1,1-37.913-70.274A84.059,84.059,0,0,1,593.133,1448.623Z" transform="translate(-31.599 -981.714)" fill="#0077ec"/>
    <g id="Grupo_54170" data-name="Grupo 54170" transform="translate(610.217 340.246)">
      <path id="Trazado_101657" data-name="Trazado 101657" d="M920.235,1288.153c.272.344.541.691.813,1.034,1.02,1.286-1.162-1.561-.189-.238.52.707,1.056,1.4,1.577,2.109q1.954,2.651,3.816,5.37,3.356,4.9,6.4,10.008a193.522,193.522,0,0,1,11.065,21.649c.83,1.9-.71-1.753.389.95q.5,1.238.989,2.483,1.217,3.12,2.322,6.282,2,5.722,3.621,11.566,1.635,5.887,2.884,11.873c.849,4.068,2.008,8.447,2.183,12.608,0-.088-.26-2.123-.11-.771.068.611.151,1.22.221,1.831q.16,1.377.3,2.756.349,3.465.572,6.942.4,6.32.388,12.659-.015,6.252-.438,12.493-.218,3.2-.544,6.393-.139,1.361-.3,2.721c-.07.6-.146,1.205-.22,1.807-.184,1.5.173.406.048-.351.276,1.676-.624,4.135-.915,5.81q-.539,3.1-1.182,6.189-1.277,6.125-2.961,12.155-1.61,5.763-3.587,11.416-1.019,2.914-2.135,5.792-.477,1.231-.971,2.455a9.008,9.008,0,0,1-.666,1.627c.462-.638.7-1.617.131-.316a192.715,192.715,0,0,1-12.25,23.626q-3.513,5.741-7.43,11.221-1.008,1.41-2.043,2.8-.387.522-.779,1.041c-.407.541-1.283,2.24-.049.083a40.991,40.991,0,0,1-4.357,5.385c-3.848,4.6-4.847,11.788,0,16.238,4.247,3.9,12.124,4.921,16.238,0,22.435-26.834,38.187-59.046,44.185-93.61,6.245-35.987,3.129-73.6-10.34-107.657a207.994,207.994,0,0,0-30.438-52.668c-3.737-4.739-12.38-4.2-16.238,0-4.615,5.027-3.987,11.183,0,16.238Z" transform="translate(-913.557 -1268.558)" fill="#0077ec"/>
    </g>
    <g id="Grupo_54171" data-name="Grupo 54171" transform="translate(345.073 268.996)">
      <path id="Trazado_101658" data-name="Trazado 101658" d="M335.661,1171.475c1.664-1.39,3.354-2.744,5.049-4.095,1.022-.814-.2.159-.344.265.4-.3.8-.6,1.2-.9q1.6-1.2,3.231-2.368,5.257-3.768,10.764-7.169a187.664,187.664,0,0,1,21.194-11.281q1.245-.564,2.5-1.109c.414-.181.83-.387,1.256-.541-2.275.826-.707.3-.217.1,1.981-.795,3.964-1.583,5.966-2.324q5.6-2.073,11.333-3.784a186.606,186.606,0,0,1,24.489-5.555,17.837,17.837,0,0,1,2.793-.417c-.1,0-2.071.26-.715.094.469-.057.938-.12,1.407-.177q3.3-.4,6.607-.684,6.448-.554,12.924-.667a190.463,190.463,0,0,1,25.835,1.3c.437.052,3.188.427,1.753.216s1.3.2,1.736.269q3.244.5,6.469,1.116,6.171,1.177,12.254,2.766a186.83,186.83,0,0,1,23.106,7.68c.342.139,2.154.884.737.3-1.367-.567.482.211.726.317q1.462.636,2.912,1.3,3.1,1.413,6.152,2.94,6.076,3.04,11.922,6.515,6.057,3.6,11.834,7.648c2.051,1.438,4.059,2.931,6.064,4.431-.142-.107-1.365-1.08-.344-.266.652.52,1.31,1.032,1.96,1.555q1.558,1.254,3.09,2.541c4.6,3.846,11.787,4.848,16.238,0,3.9-4.246,4.922-12.126,0-16.239-27.732-23.17-61.187-39.2-97.013-44.74-36.058-5.576-73.364-1.905-107.181,12.082a206.769,206.769,0,0,0-53.918,32.659c-4.627,3.866-4.291,12.3,0,16.238,4.921,4.518,11.3,4.124,16.238,0Z" transform="translate(-316.077 -1108.003)" fill="#03e6b0"/>
    </g>
    <g id="Grupo_54172" data-name="Grupo 54172" transform="translate(278.035 339.785)">
      <path id="Trazado_101659" data-name="Trazado 101659" d="M228.439,1509.034q-1.805-2.159-3.555-4.364c-1.786-2.26.641.884-.591-.759-.693-.925-1.387-1.849-2.068-2.783q-3.45-4.735-6.6-9.677a187.906,187.906,0,0,1-11.57-20.983c-.871-1.851-1.7-3.719-2.522-5.593-.894-2.044.626,1.578-.2-.5-.436-1.089-.878-2.175-1.3-3.269q-2.234-5.766-4.083-11.673a186.931,186.931,0,0,1-5.781-23.88c-.292-1.682-1.189-4.147-.915-5.81-.011.065.272,2.162.106.8-.074-.6-.152-1.2-.224-1.806q-.19-1.585-.352-3.173-.655-6.4-.873-12.845a190.8,190.8,0,0,1,.847-25.6q.162-1.605.351-3.208c.127-1.071.288-2.667.057-.594.253-2.266.668-4.532,1.062-6.776q1.058-6.034,2.509-11.988a186.562,186.562,0,0,1,7.4-23.486c.43-1.1.888-2.2,1.321-3.3.479-1.221-.272.614-.3.695.255-.688.585-1.363.88-2.036q1.335-3.039,2.777-6.031,2.967-6.158,6.382-12.087,3.4-5.9,7.213-11.549,1.964-2.9,4.036-5.736.905-1.237,1.831-2.459c.226-.3,1.391-1.786.435-.575-1.044,1.323.69-.861.724-.9,1.968-2.479,3.363-4.822,3.363-8.119a11.684,11.684,0,0,0-3.363-8.119c-4.152-3.812-12.249-5.023-16.238,0-22.161,27.909-37.227,60.955-42.171,96.368a203.13,203.13,0,0,0,14.343,108.443,200.086,200.086,0,0,0,30.846,49.613c3.867,4.626,12.3,4.292,16.238,0,4.516-4.92,4.126-11.3,0-16.238Z" transform="translate(-165.012 -1267.519)" fill="#0077ec"/>
    </g>
    <path id="Trazado_101661" data-name="Trazado 101661" d="M2138,307.755,2104.745,274.5l-33.254,33.254a96.378,96.378,0,1,0,66.508,0Zm-33.254,172.761a82.283,82.283,0,1,1,82.274-82.274A82.274,82.274,0,0,1,2104.745,480.516Z" transform="translate(-1627.284 69.499)" fill="#004080"/>
    <path id="Trazado_106714" data-name="Trazado 106714" d="M11.71-29.859,18.375-9.085,25.02-29.859h9.475V0H27.275V-6.973l.7-14.273L20.754,0H16L8.757-21.267l.7,14.294V0h-7.2V-29.859ZM57.586-12.674H46.266v7.137H59.637V0H39.067V-29.859h20.61V-24.3H46.266v6.3h11.32ZM62.569,0V-29.859h9.618A14.149,14.149,0,0,1,79.3-28.065,12.613,12.613,0,0,1,84.236-23a15.294,15.294,0,0,1,1.794,7.332v1.374A15.382,15.382,0,0,1,84.3-6.942a12.668,12.668,0,0,1-4.881,5.086A13.837,13.837,0,0,1,72.393,0Zm7.2-24.3V-5.537h2.5a5.6,5.6,0,0,0,4.758-2.2q1.661-2.2,1.661-6.552v-1.292q0-4.327-1.661-6.521a5.7,5.7,0,0,0-4.84-2.194ZM97.392,0H90.214V-29.859h7.178Zm30.29-14.314a17.608,17.608,0,0,1-1.62,7.731,11.974,11.974,0,0,1-4.6,5.178,12.82,12.82,0,0,1-6.8,1.815,13,13,0,0,1-6.768-1.753,11.954,11.954,0,0,1-4.6-5.014,17.1,17.1,0,0,1-1.733-7.485v-1.682a17.686,17.686,0,0,1,1.61-7.742,11.944,11.944,0,0,1,4.614-5.178,12.909,12.909,0,0,1,6.839-1.825,12.784,12.784,0,0,1,6.768,1.8,12.16,12.16,0,0,1,4.625,5.137,17.178,17.178,0,0,1,1.671,7.639Zm-7.321-1.251q0-4.45-1.487-6.757a4.769,4.769,0,0,0-4.255-2.307q-5.414,0-5.722,8.121l-.021,2.194a12.914,12.914,0,0,0,1.456,6.747,4.762,4.762,0,0,0,4.327,2.358,4.7,4.7,0,0,0,4.2-2.317,12.561,12.561,0,0,0,1.5-6.665Z" transform="translate(416.035 482)" fill="#fff"/>
  </g>
</svg>
