<svg xmlns="http://www.w3.org/2000/svg" xmlns:xlink="http://www.w3.org/1999/xlink" width="79" height="65" viewBox="0 0 79 65">
  <defs>
    <clipPath id="clip-path">
      <rect id="Rectángulo_5438" data-name="Rectángulo 5438" width="79" height="65" transform="translate(-0.454 0)" fill="#fff" stroke="#707070" stroke-width="1"/>
    </clipPath>
  </defs>
  <g id="Enmascarar_grupo_70" data-name="Enmascarar grupo 70" transform="translate(0.454 0)" clip-path="url(#clip-path)">
    <g id="cyber" transform="translate(6.634 0)">
      <g id="Grupo_57784" data-name="Grupo 57784" transform="translate(16.777 14.68)">
        <ellipse id="Elipse_4231" data-name="Elipse 4231" cx="13.631" cy="13.631" rx="13.631" ry="13.631" fill="#66aef4"/>
      </g>
      <g id="Grupo_57785" data-name="Grupo 57785">
        <path id="Trazado_106467" data-name="Trazado 106467" d="M64.679,59.832,56.622,40.489v-17.4a5.249,5.249,0,0,0-5.241-5.241H43.974a17.778,17.778,0,0,0-12.518-6.236V6.3a1.049,1.049,0,0,1,1.049-1.046h22.02v-2.1H32.505A3.15,3.15,0,0,0,29.36,6.3v5.3a17.778,17.778,0,0,0-12.518,6.236h-7.4A5.249,5.249,0,0,0,4.2,23.077V53.492H0v3.146a7.349,7.349,0,0,0,7.34,7.34H38.367a4.27,4.27,0,0,0,3.663,2.1h18.7a4.288,4.288,0,0,0,4.283-4.282v-.314A4.27,4.27,0,0,0,64.679,59.832ZM51.38,19.938a3.15,3.15,0,0,1,3.146,3.146V36.066a4.255,4.255,0,0,0-2.1-1.3V24.132a2.1,2.1,0,0,0-2.1-2.1h-3.7a17.912,17.912,0,0,0-1.128-2.1ZM42.408,49.3H10.485V24.132h2.887a17.825,17.825,0,1,0,34.071,0h2.887V34.738a4.254,4.254,0,0,0-2.973,2.527Zm-25.9-27.265h5.278a31.893,31.893,0,0,0-.789,6.3H14.734a15.6,15.6,0,0,1,1.775-6.291Zm13.9-8.386c2.34,0,4.461,2.5,5.815,6.291H24.593c1.355-3.789,3.475-6.291,5.815-6.291Zm6.458,8.388a29.74,29.74,0,0,1,.856,6.291H23.093a29.74,29.74,0,0,1,.856-6.291Zm9.217,6.293H39.818a31.893,31.893,0,0,0-.789-6.291h5.278A15.6,15.6,0,0,1,46.083,28.329ZM21,30.424a31.893,31.893,0,0,0,.789,6.291H16.509a15.6,15.6,0,0,1-1.775-6.291Zm2.095,0H37.722a29.739,29.739,0,0,1-.856,6.291H23.948a29.739,29.739,0,0,1-.856-6.291Zm-.721,8.386a17.463,17.463,0,0,0,2.691,5.336,15.778,15.778,0,0,1-7.208-5.336Zm2.221,0H36.225C34.87,42.6,32.75,45.1,30.41,45.1S25.948,42.6,24.593,38.81Zm13.851,0h4.517a15.772,15.772,0,0,1-7.206,5.338,17.463,17.463,0,0,0,2.689-5.338Zm5.864-2.1H39.03a31.893,31.893,0,0,0,.789-6.291h6.265a15.6,15.6,0,0,1-1.775,6.291ZM42.961,19.936H38.444A17.463,17.463,0,0,0,35.756,14.6a15.778,15.778,0,0,1,7.206,5.336ZM25.063,14.6a17.463,17.463,0,0,0-2.691,5.336H17.855A15.778,15.778,0,0,1,25.063,14.6ZM6.291,23.084a3.15,3.15,0,0,1,3.146-3.146h5.876a17.756,17.756,0,0,0-1.128,2.1h-3.7a2.1,2.1,0,0,0-2.1,2.1V49.3a2.1,2.1,0,0,0,2.1,2.1H41.544l-.862,2.1H6.291ZM23.068,55.589H33.554v1.049a1.049,1.049,0,0,1-1.049,1.048H24.117a1.049,1.049,0,0,1-1.049-1.049ZM7.34,61.881A5.249,5.249,0,0,1,2.1,56.64V55.589H20.971v1.049a3.15,3.15,0,0,0,3.146,3.146h8.388a3.15,3.15,0,0,0,3.146-3.146V55.589H39.82l-1.749,4.25a4.251,4.251,0,0,0-.323,1.629v.322c0,.031.009.058.009.088Zm55.573-.088a2.189,2.189,0,0,1-2.185,2.185h-18.7a2.189,2.189,0,0,1-2.185-2.185v-.322a2.168,2.168,0,0,1,.165-.831L49.3,38.065a2.178,2.178,0,0,1,2.021-1.355h.005a2.182,2.182,0,0,1,2.012,1.345l9.411,22.58a2.185,2.185,0,0,1,.168.841Z" transform="translate(0 -1.064)" fill="#004080"/>
        <path id="Trazado_106468" data-name="Trazado 106468" d="M75.978,60.065h-.245a3.026,3.026,0,0,0-3.023,3.023,2.951,2.951,0,0,0,.023.374l.9,7.227a2.237,2.237,0,0,0,4.439,0l.9-7.225A2.825,2.825,0,0,0,79,63.088a3.026,3.026,0,0,0-3.023-3.023ZM76.9,63.2l-.9,7.227a.144.144,0,0,1-.277,0l-.9-7.231a.8.8,0,0,1-.007-.112.929.929,0,0,1,.929-.929h.245a.929.929,0,0,1,.929.929.848.848,0,0,1-.007.114Z" transform="translate(-24.476 -20.22)" fill="#004080"/>
        <path id="Trazado_106469" data-name="Trazado 106469" d="M75.856,82.194A3.146,3.146,0,1,0,79,85.34a3.146,3.146,0,0,0-3.146-3.146Zm0,4.195A1.049,1.049,0,1,1,76.9,85.34a1.049,1.049,0,0,1-1.049,1.049Z" transform="translate(-24.476 -27.669)" fill="#004080"/>
        <path id="Trazado_106470" data-name="Trazado 106470" d="M82.194,0h2.1V2.1h-2.1Z" transform="translate(-27.669)" fill="#004080"/>
        <path id="Trazado_106471" data-name="Trazado 106471" d="M82.194,6.323h2.1v2.1h-2.1Z" transform="translate(-27.669 -2.128)" fill="#004080"/>
        <path id="Trazado_106472" data-name="Trazado 106472" d="M85.355,3.161h2.1v2.1h-2.1Z" transform="translate(-28.733 -1.064)" fill="#004080"/>
      </g>
    </g>
  </g>
</svg>
