<svg xmlns="http://www.w3.org/2000/svg" xmlns:xlink="http://www.w3.org/1999/xlink" width="79" height="65" viewBox="0 0 79 65">
  <defs>
    <clipPath id="clip-path">
      <rect id="Rectángulo_5439" data-name="Rectángulo 5439" width="79" height="65" transform="translate(-0.454 -0.455)" fill="#fff" stroke="#707070" stroke-width="1"/>
    </clipPath>
  </defs>
  <g id="Enmascarar_grupo_71" data-name="Enmascarar grupo 71" transform="translate(0.454 0.455)" clip-path="url(#clip-path)">
    <g id="software-espia" transform="translate(6.624 0.061)">
      <g id="Grupo_57786" data-name="Grupo 57786" transform="translate(29.362 12.566)">
        <path id="Trazado_106473" data-name="Trazado 106473" d="M62.1,18.943a17.829,17.829,0,0,0-5.207,34.882,2.079,2.079,0,0,1,1.009-.269H60a2.088,2.088,0,0,1,1.8,1.033c.1,0,.2.015.3.015.464,0,.922-.034,1.378-.07a2.092,2.092,0,0,1,1.769-.978h1.049a3.138,3.138,0,0,1,1.156.226A17.829,17.829,0,0,0,62.1,18.943Zm0,30.417A12.586,12.586,0,1,1,74.685,36.774,12.586,12.586,0,0,1,62.1,49.36Z" transform="translate(-44.262 -18.943)" fill="#03e6b0"/>
      </g>
      <g id="Grupo_57787" data-name="Grupo 57787" transform="translate(0 0)">
        <path id="Trazado_106474" data-name="Trazado 106474" d="M29.463,32.625a4.2,4.2,0,0,0-4.2-4.2h-2.1a4.2,4.2,0,0,0-4.2,4.2,2.1,2.1,0,0,0,2.1,2.1h6.293A2.1,2.1,0,0,0,29.463,32.625Zm-6.291-2.1h2.1a2.1,2.1,0,0,1,2.1,2.1H21.072a2.1,2.1,0,0,1,2.1-2.1Z" transform="translate(-6.388 -9.57)" fill="#004080"/>
        <path id="Trazado_106475" data-name="Trazado 106475" d="M28.006,47.341a6.137,6.137,0,0,0,10.52,2.007,17.666,17.666,0,0,1-.825-2.28,17.244,17.244,0,0,1-.439-1.824H31.556a5.462,5.462,0,0,0,1.222-3.3v-.46l1.049-1.049,3.216,3.216q-.066-.768-.066-1.554c0-.476.034-.944.072-1.412l-2.169-2.169V34.754h-2.1v3.761l-2.1,2.1v1.306a3.419,3.419,0,0,1-3.4,3.325,3.377,3.377,0,0,1-2.4-1l-.8-.8L22.6,44.937l.8.8a5.461,5.461,0,0,0,3.888,1.611c.087,0,.168-.022.254-.025v.025h.47Zm7.921,0h1.447a4.029,4.029,0,0,1-3.545,2.1,4.072,4.072,0,0,1-3.546-2.1Z" transform="translate(-7.608 -11.699)" fill="#004080"/>
        <path id="Trazado_106476" data-name="Trazado 106476" d="M43.08,21.044a17.679,17.679,0,0,1,2.863-1.217,5.235,5.235,0,0,0-2.878-.882H17.893a5.251,5.251,0,0,0-5.245,5.245V38.873A13.651,13.651,0,0,0,26.282,52.508h8.393a13.628,13.628,0,0,0,6.113-1.475,17.96,17.96,0,0,1-1.749-1.478,11.563,11.563,0,0,1-4.364.855H26.282A11.551,11.551,0,0,1,14.746,38.873V24.189a3.15,3.15,0,0,1,3.146-3.146H43.08Z" transform="translate(-4.258 -6.377)" fill="#004080"/>
        <path id="Trazado_106477" data-name="Trazado 106477" d="M51.394,46.13H50.345a3.142,3.142,0,0,0-2.622,1.414A3.145,3.145,0,0,0,45.1,46.131H43a3.132,3.132,0,0,0-2.182.888A17.912,17.912,0,0,1,38.8,46.1a22.05,22.05,0,0,1-4.26,1.754l-6.2,1.806a2.278,2.278,0,0,0-4.233,0l-6.2-1.808A22.065,22.065,0,0,1,2.1,26.783,21.832,21.832,0,0,1,14.232,7.147l8.485-4.242a7.974,7.974,0,0,1,7.011,0L38.21,7.148a22.012,22.012,0,0,1,7,5.538,17.845,17.845,0,0,1,1.99-.119c.2,0,.4.024.6.031A24.137,24.137,0,0,0,39.15,5.272L30.666,1.03a10.1,10.1,0,0,0-8.889,0L13.295,5.272A23.917,23.917,0,0,0,0,26.783,24.186,24.186,0,0,0,15.652,49.309,19.083,19.083,0,0,0,7.436,61.316l-.341,1.592H43.2a3.142,3.142,0,0,0,2.953,2.1h2.1a3.15,3.15,0,0,0,3.146-3.146V60.815a4.2,4.2,0,0,0,4.2-4.2V50.327A4.2,4.2,0,0,0,51.394,46.13ZM43,48.227h2.1a1.049,1.049,0,1,1,0,2.1H43a1.049,1.049,0,0,1,0-2.1Zm-2.671-.6a3.118,3.118,0,0,0-.48,1.65A3.15,3.15,0,0,0,43,52.426v3.606a19.039,19.039,0,0,0-6.209-6.719,24.146,24.146,0,0,0,3.542-1.683Zm-14.3,2.852a.19.19,0,0,1,.373,0l.85,5.1a.978.978,0,0,1,.011.147.89.89,0,0,1-.888.888H26.06a.89.89,0,0,1-.888-.888.858.858,0,0,1,.013-.147Zm-7.7-.316L23.7,51.73l-.584,3.509a2.935,2.935,0,0,0-.042.491,2.99,2.99,0,0,0,2.985,2.985h.322a2.99,2.99,0,0,0,2.985-2.985,3.058,3.058,0,0,0-.041-.491l-.584-3.509L34.1,50.168a16.989,16.989,0,0,1,8.6,10.648H9.716A17,17,0,0,1,18.34,50.168ZM48.248,62.91h-2.1A1.049,1.049,0,0,1,45.1,61.862V52.424a3.126,3.126,0,0,0,2.1-.818v6.061a3.142,3.142,0,0,0,2.1,2.953v1.242a1.049,1.049,0,0,1-1.049,1.049Zm5.245-6.293a2.1,2.1,0,0,1-2.1,2.1H50.345A1.049,1.049,0,0,1,49.3,57.666V56.619h2.1v-2.1H49.3v-2.1h2.1v-2.1H49.3V49.277a1.049,1.049,0,0,1,1.049-1.049h1.049a2.1,2.1,0,0,1,2.1,2.1Z" transform="translate(0 0)" fill="#004080"/>
        <path id="Trazado_106478" data-name="Trazado 106478" d="M64.23,25.268A13.635,13.635,0,1,0,77.862,38.9,13.636,13.636,0,0,0,64.23,25.268Zm0,25.173A11.537,11.537,0,1,1,75.767,38.9,11.537,11.537,0,0,1,64.23,50.441Z" transform="translate(-17.031 -8.506)" fill="#004080"/>
        <path id="Trazado_106479" data-name="Trazado 106479" d="M56.92,44.241H71.6v2.1H56.92Z" transform="translate(-19.161 -14.893)" fill="#004080"/>
        <path id="Trazado_106480" data-name="Trazado 106480" d="M82.218,44.241h2.1v2.1h-2.1Z" transform="translate(-27.677 -14.893)" fill="#004080"/>
        <path id="Trazado_106481" data-name="Trazado 106481" d="M0,0H2.28V2.1H0Z" transform="translate(47.983 22.879) rotate(-45)" fill="#004080"/>
        <path id="Trazado_106482" data-name="Trazado 106482" d="M68.565,37.682,67.083,36.2l-1.141,1.14h-5.86v2.1h6.727Z" transform="translate(-20.225 -12.186)" fill="#004080"/>
        <path id="Trazado_106483" data-name="Trazado 106483" d="M0,0H2.1V2.28H0Z" transform="translate(47.983 37.919) rotate(-45)" fill="#004080"/>
        <path id="Trazado_106484" data-name="Trazado 106484" d="M66.809,50.565H60.082v2.1h5.859L67.082,53.8l1.483-1.483Z" transform="translate(-20.225 -17.022)" fill="#004080"/>
      </g>
    </g>
  </g>
</svg>
